<svg class="flex-shrink-0 w-7 h-7 text-gray-500 transition duration-75 dark:text-gray-400 group-hover:text-gray-900 dark:group-hover:text-white"
    aria-hidden="true" xmlns="http://www.w3.org/2000/svg" fill="currentColor" viewBox="0 0 24 24">
    <path
        d="M6.00098 4H6.01098M3.17188 10C3.58371 8.83481 4.69495 8 6.00117 8C7.30739 8 8.41863 8.83481 8.83046 10M6.00098 15H6.01098M3.17188 21C3.58371 19.8348 4.69495 19 6.00117 19C7.30739 19 8.41863 19.8348 8.83046 21M13.601 8.5H19.401C19.961 8.5 20.2411 8.5 20.455 8.39101C20.6431 8.29513 20.7961 8.14215 20.892 7.95399C21.001 7.74008 21.001 7.46005 21.001 6.9V6.1C21.001 5.53995 21.001 5.25992 20.892 5.04601C20.7961 4.85785 20.6431 4.70487 20.455 4.60899C20.2411 4.5 19.961 4.5 19.401 4.5H13.601C13.0409 4.5 12.7609 4.5 12.547 4.60899C12.3588 4.70487 12.2058 4.85785 12.11 5.04601C12.001 5.25992 12.001 5.53995 12.001 6.1V6.9C12.001 7.46005 12.001 7.74008 12.11 7.95399C12.2058 8.14215 12.3588 8.29513 12.547 8.39101C12.7609 8.5 13.0409 8.5 13.601 8.5ZM13.601 19.5H19.401C19.961 19.5 20.2411 19.5 20.455 19.391C20.6431 19.2951 20.7961 19.1422 20.892 18.954C21.001 18.7401 21.001 18.4601 21.001 17.9V17.1C21.001 16.5399 21.001 16.2599 20.892 16.046C20.7961 15.8578 20.6431 15.7049 20.455 15.609C20.2411 15.5 19.961 15.5 19.401 15.5H13.601C13.0409 15.5 12.7609 15.5 12.547 15.609C12.3588 15.7049 12.2058 15.8578 12.11 16.046C12.001 16.2599 12.001 16.5399 12.001 17.1V17.9C12.001 18.4601 12.001 18.7401 12.11 18.954C12.2058 19.1422 12.3588 19.2951 12.547 19.391C12.7609 19.5 13.0409 19.5 13.601 19.5ZM7.00098 4C7.00098 4.55228 6.55326 5 6.00098 5C5.44869 5 5.00098 4.55228 5.00098 4C5.00098 3.44772 5.44869 3 6.00098 3C6.55326 3 7.00098 3.44772 7.00098 4ZM7.00098 15C7.00098 15.5523 6.55326 16 6.00098 16C5.44869 16 5.00098 15.5523 5.00098 15C5.00098 14.4477 5.44869 14 6.00098 14C6.55326 14 7.00098 14.4477 7.00098 15Z"
        stroke="#000000" stroke-width="2" stroke-linecap="round" stroke-linejoin="round" />
</svg>