<?xml version="1.0" encoding="UTF-8"?>
<svg version="1.1" xmlns="http://www.w3.org/2000/svg" width="256" height="256">
<path d="M0 0 C7.59427163 0.04206117 14.77390444 0.87723898 22.23792076 2.23656178 C23.4363813 2.44632145 24.63484184 2.65608112 25.86961937 2.87219715 C29.1211319 3.44342657 32.37087045 4.02366145 35.61999655 4.60828328 C39.04611455 5.22260946 42.47424366 5.82551256 45.90213585 6.42984486 C51.6577037 7.44617993 57.41188723 8.47005124 63.16516685 9.49925709 C70.50889035 10.81295176 77.85463704 12.11493449 85.2011528 13.41291237 C91.56655855 14.53756507 97.93114865 15.66680798 104.29553843 16.79719424 C105.64956606 17.03761924 107.00362033 17.27789432 108.35770178 17.5180161 C112.82235843 18.30975616 117.28617974 19.10607305 121.74963951 19.90453053 C122.84929543 20.09946095 123.94895134 20.29439137 125.08193016 20.49522877 C130.76340019 21.51559801 136.43139953 22.59721682 142.08792686 23.74808216 C143.76811881 24.08811284 143.76811881 24.08811284 145.48225403 24.43501282 C154.53626587 26.82648863 160.83919398 32.33363548 165.62317467 40.26463795 C173.573699 56.49036282 166.97005791 77.24987133 163.90860271 94.22276974 C163.23858229 97.95319714 162.5846493 101.6864507 161.92828941 105.41930103 C160.82591599 111.67437645 159.71133598 117.92717885 158.58899498 124.17870045 C157.29627883 131.37998173 156.02231218 138.58438809 154.75839067 145.79077482 C153.53411626 152.76900429 152.29751046 159.74499292 151.0550518 166.72000599 C150.52979774 169.66962982 150.00861831 172.61992912 149.49079704 175.57086658 C148.88026316 179.04649873 148.25881563 182.52001397 147.62924004 185.99224567 C147.29369524 187.85678216 146.96859357 189.7231888 146.64392662 191.58965015 C144.7186909 202.09628904 142.15896568 212.19428362 133.62317467 219.26463795 C123.61035415 225.26463795 123.61035415 225.26463795 119.62317467 225.26463795 C119.47879967 226.02776295 119.33442467 226.79088795 119.18567467 227.57713795 C116.76781257 231.73586075 113.12332401 232.07086997 108.62317467 233.26463795 C104.38914672 234.20093773 100.13235708 234.96724487 95.86170006 235.71654224 C94.61158134 235.94131245 93.36146263 236.16608265 92.07346153 236.39766407 C88.66704179 237.00955655 85.25911994 237.61262714 81.85068631 238.21318889 C79.71163828 238.59047811 77.5729322 238.96964824 75.43432999 239.34945583 C67.94538754 240.67933713 60.45517731 242.00180253 52.96375084 243.31761646 C46.02742388 244.53614062 39.0941778 245.77118241 32.16217047 247.01402253 C26.17473253 248.08670786 20.18522624 249.14727769 14.19405168 250.19889098 C10.63199961 250.82434469 7.07092212 251.45436866 3.51189423 252.09682751 C-37.53938854 259.4935791 -37.53938854 259.4935791 -48.27135658 252.8622942 C-60.3831734 243.67169479 -63.66360901 232.17555203 -66.14757729 217.56419849 C-66.38360559 216.23682303 -66.62082971 214.90965974 -66.8591404 213.58269215 C-67.49580579 210.0165256 -68.11497916 206.44753738 -68.73009324 202.87759852 C-69.38072083 199.1155098 -70.04544863 195.35590753 -70.7079258 191.595891 C-71.81793957 185.28251809 -72.91634618 178.96720817 -74.00792885 172.65062428 C-75.26370666 165.38485043 -76.53862842 158.12263331 -77.82374793 150.86199635 C-79.0672972 143.83318782 -80.29629254 136.80190473 -81.51914978 129.76946926 C-82.03627018 126.79732653 -82.55844218 123.82614087 -83.08494949 120.85564709 C-83.70652417 117.34529429 -84.31518686 113.83292303 -84.91465759 110.31873035 C-85.23783032 108.44163879 -85.57326313 106.56667032 -85.90929604 104.69183826 C-87.7972849 93.4828412 -90.01223519 80.23738413 -83.37682533 70.26463795 C-76.30685169 60.37400124 -67.9068914 55.68395513 -56.06432533 53.70213795 C-55.00286293 53.50724781 -53.94140053 53.31235767 -52.8477726 53.11156178 C-49.36070298 52.4761447 -45.86909541 51.87076542 -42.37682533 51.26463795 C-39.75665154 50.79266485 -37.13685373 50.31895766 -34.51745033 49.84276295 C-27.80770815 48.62805011 -21.09394001 47.43785072 -14.37682533 46.26463795 C-14.180485 45.10939625 -13.98414467 43.95415455 -13.78185463 42.76390553 C-13.04863595 38.46633113 -12.30180365 34.17121464 -11.5508976 29.87669849 C-11.22818317 28.01991658 -10.90913301 26.16249385 -10.59386635 24.30443287 C-10.13928925 21.62922874 -9.67145599 18.95662854 -9.20104408 16.2841692 C-9.06341148 15.45689823 -8.92577888 14.62962727 -8.7839756 13.77728748 C-7.82972198 8.45469729 -6.37521954 0.70982288 0 0 Z " fill="#E44C3C" transform="translate(87.3768253326416,-0.26463794708251953)"/>
<path d="M0 0 C1.69338028 0.33815582 3.38364351 0.69231917 5.0703125 1.0625 C7.41658128 1.54435615 9.72604904 1.86890548 12.10546875 2.1328125 C15.54296875 2.5703125 15.54296875 2.5703125 16.54296875 3.5703125 C18.17900732 3.90410576 19.82638232 4.18265588 21.4765625 4.4375 C22.50982666 4.59943848 23.54309082 4.76137695 24.60766602 4.92822266 C25.72069092 5.0988623 26.83371582 5.26950195 27.98046875 5.4453125 C30.26958896 5.80431972 32.55865111 6.1636973 34.84765625 6.5234375 C36.55066895 6.78930664 36.55066895 6.78930664 38.28808594 7.06054688 C42.72988763 7.75620259 47.16881227 8.46761455 51.60546875 9.1953125 C52.29890381 9.30601074 52.99233887 9.41670898 53.70678711 9.53076172 C56.94890501 10.06444041 60.1016597 10.71345633 63.28588867 11.52929688 C67.32260755 12.54999484 71.38529679 13.28583857 75.49609375 13.9375 C77.00847243 14.18386474 78.52084188 14.43028608 80.03320312 14.67675781 C80.81139404 14.80232056 81.58958496 14.9278833 82.39135742 15.05725098 C94.10138474 16.94940188 105.791469 18.87464416 117.40185547 21.31640625 C121.56569042 22.19164822 125.69677723 22.88614168 129.91796875 23.4453125 C138.18442231 24.76417689 148.05814233 27.99365881 153.54296875 34.5703125 C154.73046875 37.6953125 154.73046875 37.6953125 155.54296875 40.5703125 C155.87296875 41.2303125 156.20296875 41.8903125 156.54296875 42.5703125 C156.72045009 44.00424903 156.86188022 45.4428089 156.98046875 46.8828125 C157.2509833 49.66778198 157.53396799 51.54981076 158.66796875 54.1328125 C160.46225862 59.13119142 159.0072537 63.9871178 156.85546875 68.6328125 C152.63402711 76.25527427 147.22704597 82.345227 138.66943359 85.1328125 C127.45840994 87.43937443 114.54972128 85.0476586 103.54296875 82.5703125 C103.54296875 81.9103125 103.54296875 81.2503125 103.54296875 80.5703125 C91.0200016 80.99502467 78.99172345 82.63211053 66.67578125 84.87890625 C64.82086082 85.20984029 62.96578524 85.53990572 61.11056519 85.86915588 C56.27681849 86.72939056 51.44525059 87.60128908 46.61407471 88.47583008 C41.70885423 89.36157251 36.80160291 90.2359108 31.89453125 91.11132812 C24.70351434 92.39567471 17.51340595 93.68491793 10.32470703 94.98217773 C9.54345585 95.12302701 8.76220467 95.26387629 7.95727921 95.40899372 C2.85003919 96.33086271 -2.25447963 97.26669293 -7.35577393 98.22099304 C-10.35491506 98.71957946 -13.29425435 98.90743498 -16.33203125 98.9453125 C-17.38132812 98.97367187 -18.430625 99.00203125 -19.51171875 99.03125 C-23.19355277 98.45504786 -24.79490075 97.12539929 -27.45703125 94.5703125 C-30.50304977 90.20435262 -30.89408937 86.80404455 -30.09375 81.68359375 C-28.74863994 77.2191487 -25.59871763 75.21072879 -21.70068359 73.02416992 C-18.33098329 71.51381577 -15.38029445 70.80040763 -11.74609375 70.18359375 C-10.50214844 69.96767578 -9.25820313 69.75175781 -7.9765625 69.52929688 C-6.69136719 69.31595703 -5.40617187 69.10261719 -4.08203125 68.8828125 C-2.76026726 68.65646973 -1.43865072 68.42926408 -0.1171875 68.20117188 C3.10151787 67.64905818 6.3214544 67.10574865 9.54296875 66.5703125 C6.24296875 65.9103125 2.94296875 65.2503125 -0.45703125 64.5703125 C-0.45703125 63.9103125 -0.45703125 63.2503125 -0.45703125 62.5703125 C-2.03484375 62.663125 -2.03484375 62.663125 -3.64453125 62.7578125 C-10.630313 62.77033182 -18.61459096 61.46527269 -24.45703125 57.5703125 C-24.88589959 53.21015101 -24.88932289 50.60781244 -23.20703125 46.5703125 C-22.62953125 45.9103125 -22.05203125 45.2503125 -21.45703125 44.5703125 C-20.13703125 44.5703125 -18.81703125 44.5703125 -17.45703125 44.5703125 C-17.45703125 43.9103125 -17.45703125 43.2503125 -17.45703125 42.5703125 C-16.46703125 42.5703125 -15.47703125 42.5703125 -14.45703125 42.5703125 C-12.21296013 34.23519118 -9.79967249 25.24988275 -10.45703125 16.5703125 C-11.69453125 15.36375 -11.69453125 15.36375 -12.95703125 14.1328125 C-15.45703125 11.5703125 -15.45703125 11.5703125 -16.08203125 8.0703125 C-15.45703125 4.5703125 -15.45703125 4.5703125 -13.45703125 1.6328125 C-8.90549295 -1.49637008 -5.16736484 -0.90367271 0 0 Z " fill="#803032" transform="translate(72.45703125,139.4296875)"/>
<path d="M0 0 C0.04254356 1.99954746 0.04080783 4.00041636 0 6 C-0.33 6.33 -0.66 6.66 -1 7 C-1.54892643 10.61645645 -1.9666852 14.24329174 -2.40234375 17.875 C-2.88306509 21.52716518 -3.66554181 25.06599081 -4.49389648 28.65283203 C-5.55241731 33.56195854 -6.20811816 38.5440596 -6.94335938 43.50976562 C-7.06646484 44.31994141 -7.18957031 45.13011719 -7.31640625 45.96484375 C-7.42412354 46.6930835 -7.53184082 47.42132324 -7.64282227 48.17163086 C-8 50 -8 50 -9 52 C-9.44008024 55.23218593 -9.81227539 58.4642223 -10.16210938 61.70703125 C-10.64136976 65.86062122 -11.42058123 69.76844306 -12.48950195 73.82128906 C-13.51129078 78.18209417 -14.03553725 82.62649202 -14.625 87.0625 C-14.7590625 88.01705078 -14.893125 88.97160156 -15.03125 89.95507812 C-16.06746973 97.45639299 -16.06746973 97.45639299 -16 105 C-15.154375 105.7425 -14.30875 106.485 -13.4375 107.25 C-11 110 -11 110 -10.78515625 112.15625 C-11.03293508 115.1476162 -11.48049752 118.04257087 -12 121 C-12.25152119 122.49866116 -12.50280813 123.99736165 -12.75390625 125.49609375 C-13.466254 129.67114652 -14.22389279 133.83635566 -15 138 C-15.33 137.34 -15.66 136.68 -16 136 C-16.99 136 -17.98 136 -19 136 C-19 136.66 -19 137.32 -19 138 C-19.61875 138.0825 -20.2375 138.165 -20.875 138.25 C-23.07986168 138.81771685 -23.07986168 138.81771685 -24.25 140.5625 C-25.34127575 144.10914618 -25.12349053 147.29528399 -25 151 C-22.13859497 152.57890277 -19.67993456 153.37190162 -16.453125 153.8515625 C-15.60878906 153.98046875 -14.76445313 154.109375 -13.89453125 154.2421875 C-13.02183594 154.36851562 -12.14914063 154.49484375 -11.25 154.625 C-10.36183594 154.7590625 -9.47367187 154.893125 -8.55859375 155.03125 C-6.3732264 155.36023003 -4.18712086 155.68292466 -2 156 C-2 156.66 -2 157.32 -2 158 C-0.205625 157.9690625 -0.205625 157.9690625 1.625 157.9375 C5.18004869 157.93117429 8.50555624 158.30111125 12 159 C8.65356196 160.92892017 5.56587257 161.54953984 1.765625 162.1484375 C0.55132812 162.34953125 -0.66296875 162.550625 -1.9140625 162.7578125 C-4.45490342 163.16662397 -6.99657004 163.57033881 -9.5390625 163.96875 C-21.13111693 165.70284074 -21.13111693 165.70284074 -30.0625 172.6875 C-31.29867822 177.0553297 -31.3469838 180.64635592 -30 185 C-27.66663334 188.00333267 -27.66663334 188.00333267 -25 190 C-24.67 190.33 -24.34 190.66 -24 191 C-13.4645346 191.91942818 -3.3434584 189.94553117 6.953125 188.04296875 C8.66484087 187.73528112 10.37673883 187.42860498 12.08880615 187.12287903 C16.56875157 186.32016728 21.04616043 185.50410876 25.52313232 184.68499756 C30.03351801 183.86210986 34.5461239 183.05160082 39.05859375 182.24023438 C44.94511945 181.18083296 50.83090924 180.11759547 56.71522045 179.04595947 C59.72545649 178.49815672 62.73616611 177.95298984 65.74698067 177.40837669 C67.28612067 177.129396 68.82505639 176.84928655 70.3638134 176.56820107 C72.68168471 176.14520247 75.00029272 175.72647261 77.3190918 175.30859375 C78.01370388 175.18087176 78.70831596 175.05314978 79.4239769 174.92155743 C84.51668005 174.01018142 89.40127269 173.61839405 94.5625 173.8125 C95.29662109 173.82603516 96.03074219 173.83957031 96.78710938 173.85351562 C98.52509143 173.8875937 100.26267554 173.94129191 102 174 C102 174.66 102 175.32 102 176 C103.918125 175.9690625 103.918125 175.9690625 105.875 175.9375 C109.75 175.875 109.75 175.875 112 177 C113.33857726 177.13844275 114.68280098 177.22503427 116.02734375 177.28125 C116.81947266 177.31863281 117.61160156 177.35601562 118.42773438 177.39453125 C119.25595703 177.42933594 120.08417969 177.46414062 120.9375 177.5 C122.57178464 177.56900029 124.20591575 177.64176558 125.83984375 177.71875 C126.56550537 177.74904297 127.29116699 177.77933594 128.03881836 177.81054688 C130 178 130 178 133 179 C132.5625 181.3125 132.5625 181.3125 131 184 C124.36026647 187.30460512 116.46106255 188.18469223 109.23852539 189.4519043 C107.98840668 189.6766745 106.73828796 189.9014447 105.45028687 190.13302612 C102.04386712 190.7449186 98.63594528 191.34798919 95.22751164 191.94855094 C93.08846362 192.32584016 90.94975753 192.7050103 88.81115532 193.08481789 C81.32221288 194.41469918 73.83200264 195.73716458 66.34057617 197.05297852 C59.40424921 198.27150267 52.47100313 199.50654446 45.5389958 200.74938458 C39.55155786 201.82206991 33.56205158 202.88263975 27.57087702 203.93425304 C24.00882495 204.55970674 20.44774745 205.18973071 16.88871956 205.83218956 C-24.16256321 213.22894115 -24.16256321 213.22894115 -34.89453125 206.59765625 C-47.00634807 197.40705684 -50.28678368 185.91091409 -52.77075195 171.29956055 C-53.00678026 169.97218508 -53.24400438 168.6450218 -53.48231506 167.3180542 C-54.11898046 163.75188765 -54.73815383 160.18289943 -55.35326791 156.61296058 C-56.0038955 152.85087186 -56.6686233 149.09126959 -57.33110046 145.33125305 C-58.44111424 139.01788014 -59.53952085 132.70257022 -60.63110352 126.38598633 C-61.88688133 119.12021249 -63.16180308 111.85799536 -64.4469226 104.59735841 C-65.69047187 97.56854987 -66.91946721 90.53726678 -68.14232445 83.50483131 C-68.65944484 80.53268859 -69.18161685 77.56150292 -69.70812416 74.59100914 C-70.32969884 71.08065634 -70.93836153 67.56828509 -71.53783226 64.05409241 C-71.86100499 62.17700084 -72.19643779 60.30203237 -72.5324707 58.42720032 C-74.42045957 47.21820325 -76.63540986 33.97274618 -70 24 C-62.93008774 14.10944917 -54.53004105 9.4191544 -42.6875 7.4375 C-41.6253125 7.24260986 -40.563125 7.04771973 -39.46875 6.84692383 C-37.19099806 6.43208065 -34.91144817 6.02701102 -32.63037109 5.63085938 C-28.80841523 4.9667078 -24.99183351 4.27515708 -21.17578125 3.578125 C-1.48060135 0 -1.48060135 0 0 0 Z " fill="#334559" transform="translate(74,46)"/>
<path d="M0 0 C0.80566406 0.10022461 1.61132812 0.20044922 2.44140625 0.30371094 C3.34117188 0.41392578 4.2409375 0.52414063 5.16796875 0.63769531 C9.79203751 1.29054249 14.39984639 2.00631549 19.00390625 2.78808594 C20.03209473 2.96073975 21.0602832 3.13339355 22.11962891 3.3112793 C31.00301747 4.82401568 39.84742314 6.52013851 48.69116211 8.24755859 C54.97079756 9.46987437 61.25280972 10.6302438 67.56640625 11.66308594 C68.27015381 11.77845703 68.97390137 11.89382812 69.69897461 12.01269531 C72.58641579 12.48400435 75.47435322 12.95223914 78.36230469 13.42041016 C80.72327024 13.80658507 83.08240497 14.20260955 85.44140625 14.60058594 C86.15820557 14.71547363 86.87500488 14.83036133 87.61352539 14.94873047 C91.03006099 15.53176834 93.07163215 16.08323653 96.00390625 18.03808594 C96.46932028 23.98741634 95.59871278 29.61008697 94.578125 35.46386719 C94.42986771 36.33327438 94.28161041 37.20268158 94.12886047 38.09843445 C93.81540381 39.92177894 93.49839119 41.74451539 93.17797852 43.56665039 C92.69016454 46.35769039 92.22257124 49.1516527 91.75585938 51.94628906 C91.44783767 53.72319422 91.1386344 55.49989506 90.828125 57.27636719 C90.6904924 58.11073807 90.5528598 58.94510895 90.41105652 59.80476379 C90.20117851 60.96693672 90.20117851 60.96693672 89.98706055 62.15258789 C89.86936813 62.83239212 89.75167572 63.51219635 89.63041687 64.21260071 C88.82192664 66.56832609 88.04308497 67.59610686 86.00390625 69.03808594 C76.96762339 69.67125053 67.37411742 67.02078042 58.484375 65.42089844 C57.01295937 65.16004328 55.54146614 64.89962557 54.06990051 64.63961792 C51.00262631 64.09654389 47.93600513 63.54997335 44.86987305 63.00048828 C40.9849111 62.30429271 37.09889596 61.61421902 33.21242809 60.92648506 C29.44852186 60.26013881 25.68518538 59.59060013 21.921875 58.92089844 C21.22706717 58.79753239 20.53225933 58.67416634 19.81639671 58.54706192 C15.20904753 57.72766546 10.60624103 56.88528243 6.00390625 56.03808594 C5.31174137 55.91651878 4.61957649 55.79495163 3.90643692 55.66970062 C1.83436535 55.30568931 -0.23455201 54.92690284 -2.3034668 54.54541016 C-4.12408882 54.21898026 -4.12408882 54.21898026 -5.98149109 53.88595581 C-8.96494931 53.04684545 -10.21390174 52.52692026 -11.99609375 50.03808594 C-12.13623047 48.1652832 -12.13623047 48.1652832 -11.80078125 46.04199219 C-11.68186523 45.24422363 -11.56294922 44.44645508 -11.44042969 43.62451172 C-11.29379883 42.77099121 -11.14716797 41.9174707 -10.99609375 41.03808594 C-10.85719727 40.17038574 -10.71830078 39.30268555 -10.57519531 38.40869141 C-10.11296018 35.59330523 -9.62140215 32.78444673 -9.12109375 29.97558594 C-8.94400879 28.97567627 -8.76692383 27.9757666 -8.58447266 26.94555664 C-8.22638788 24.92991711 -7.8668738 22.91453093 -7.50585938 20.89941406 C-7.04020467 18.28568169 -6.58665837 15.67018446 -6.13671875 13.05371094 C-5.88205974 11.61090554 -5.62689017 10.16819012 -5.37109375 8.72558594 C-5.15195313 7.47132812 -4.9328125 6.21707031 -4.70703125 4.92480469 C-3.93567084 1.79274236 -3.47182994 0.06624333 0 0 Z " fill="#ECEFEF" transform="translate(95.99609375,67.9619140625)"/>
<path d="M0 0 C8.33484886 -0.35793829 13.47913129 2.63018452 20.25 7.1875 C27.59145362 14.69580484 30.33867251 22.3666838 30.38837433 32.64957237 C30.17500535 45.00477149 27.56251573 57.15570938 25.35563087 69.27780199 C24.69978408 72.89922578 24.06179987 76.52379758 23.42175293 80.14804077 C22.21225338 86.98142593 20.98717966 93.81191803 19.75620031 100.64146268 C18.3533287 108.42914556 16.96828204 116.21996637 15.5845747 124.01107335 C12.742587 140.01090466 9.87872532 156.00673678 7 172 C6.34 172 5.68 172 5 172 C3.07760844 168.02705744 2.63990974 164.42467765 2.34375 160.0859375 C2.09773501 157.70024095 2.09773501 157.70024095 0 155 C-0.2475 154.030625 -0.495 153.06125 -0.75 152.0625 C-2.74214482 147.18174519 -6.65884102 145.57722736 -11.3671875 143.55078125 C-17.60973028 141.34712194 -23.3715539 139.39770677 -30 139 C-30 138.67 -30 138.34 -30 138 C-28.02 138 -26.04 138 -24 138 C-23.94884033 137.41009277 -23.89768066 136.82018555 -23.8449707 136.21240234 C-23.23513933 129.6282799 -22.29368157 123.14261757 -21.1875 116.625 C-21.01009277 115.56829102 -20.83268555 114.51158203 -20.64990234 113.42285156 C-19.45411816 106.40039483 -18.1004319 99.42541455 -16.64575195 92.45288086 C-14.48165408 81.82694064 -12.82419942 71.10472848 -11.10595703 60.39941406 C-10.9195163 59.25267967 -10.9195163 59.25267967 -10.72930908 58.08277893 C-10.49573463 56.64612678 -10.26546513 55.20893153 -10.03924561 53.77110291 C-9.32551075 49.40130383 -8.23614408 45.24719973 -7 41 C-6.72294109 39.48203153 -6.48102638 37.95683964 -6.2890625 36.42578125 C-6.18053955 35.60231201 -6.0720166 34.77884277 -5.96020508 33.93041992 C-5.8495874 33.06650635 -5.73896973 32.20259277 -5.625 31.3125 C-4.20637923 20.77296556 -2.20084018 10.40092493 0 0 Z " fill="#C13A2A" transform="translate(226,24)"/>
<path d="M0 0 C5.02135457 -0.12975076 9.70652774 0.31308455 14.625 1.25 C15.32005142 1.3787854 16.01510284 1.5075708 16.73121643 1.64025879 C20.68223182 2.37478055 24.63092652 3.11897056 28.57543945 3.88769531 C44.00570465 6.88700897 59.49618248 9.48994668 75.00073242 12.07275391 C87.19184461 14.10677718 99.34765683 16.20901668 111.45527649 18.69580078 C117.99318303 20.02951311 124.53526763 21.01578317 131.1640625 21.77734375 C138.01005786 22.68640215 143.76955273 24.54650801 148.5 29.75 C150.33515584 33.72617098 150.85854922 36.69866841 150 41 C147.91709046 44.94265021 145.79647521 47.67212704 142 50 C131.74160766 51.56640989 120.89963583 48.88880809 110.8125 47.0625 C109.02758114 46.74781175 107.24250148 46.4340344 105.45727539 46.12109375 C100.64385766 45.2738156 95.83321851 44.41172572 91.02331543 43.54473877 C87.9667115 42.9940021 84.90968822 42.44565069 81.85253906 41.89794922 C73.43930532 40.39008084 65.02662756 38.87922478 56.61621094 37.35571289 C46.42866349 35.51084494 36.23904183 33.68126247 26.0390625 31.90625 C25.09976395 31.74274048 24.16046539 31.57923096 23.19270325 31.4107666 C18.77682782 30.64305398 14.36034882 29.87899802 9.94311523 29.11914062 C8.39045712 28.85028996 6.83780383 28.58141147 5.28515625 28.3125 C4.58456085 28.19314087 3.88396545 28.07378174 3.16213989 27.95080566 C0.34355464 27.46121741 -2.27995133 26.90668289 -5 26 C-4.55217146 22.6026955 -4.08988602 19.20750898 -3.625 15.8125 C-3.49867187 14.85279297 -3.37234375 13.89308594 -3.2421875 12.90429688 C-3.11328125 11.97294922 -2.984375 11.04160156 -2.8515625 10.08203125 C-2.73635254 9.22843018 -2.62114258 8.3748291 -2.50244141 7.49536133 C-1.96461872 4.82427983 -1.08247448 2.4951623 0 0 Z " fill="#F8E6AE" transform="translate(64,157)"/>
<path d="M0 0 C1.40130021 0.2450187 2.80274169 0.48923068 4.20431519 0.73268127 C7.86851989 1.37108718 11.53093804 2.01919105 15.19299316 2.6697998 C21.05869889 3.70989574 26.92728445 4.73367106 32.79540634 5.76002693 C34.82971538 6.11705245 36.86341125 6.47740061 38.89700317 6.83848572 C45.02284775 7.91872502 51.12147842 8.94334477 57.3046875 9.62890625 C57.3046875 10.28890625 57.3046875 10.94890625 57.3046875 11.62890625 C46.64608726 13.53306086 35.98745218 15.43702035 25.32877445 17.34074116 C20.37777635 18.22503313 15.42678959 19.10938847 10.47583008 19.99389648 C5.68421099 20.84993518 0.89256036 21.70579717 -3.89911079 22.56154442 C-5.71323294 22.88556001 -7.52734435 23.20963578 -9.34144402 23.53377724 C-10.20627466 23.68830046 -11.07110531 23.84282368 -11.96214294 24.00202942 C-12.81089272 24.15369159 -13.65964251 24.30535376 -14.53411198 24.46161175 C-17.00364307 24.9023114 -19.47347886 25.34127355 -21.94332886 25.78018188 C-25.11931231 26.34524725 -28.29324317 26.92039526 -31.46609497 27.5027771 C-32.22960298 27.64139003 -32.99311098 27.78000296 -33.77975559 27.92281628 C-35.19846328 28.18042684 -36.61661268 28.44114313 -38.03401852 28.70582294 C-53.84916144 31.55877506 -53.84916144 31.55877506 -59.4375 27.76953125 C-62.67957258 24.69573233 -64.55380701 21.98455655 -64.828125 17.41796875 C-64.59440056 13.27967124 -64.05857187 11.10633286 -61.5078125 7.75390625 C-56.73338661 4.14656224 -52.20663601 2.29742142 -46.3359375 1.2421875 C-45.13710938 1.02626953 -43.93828125 0.81035156 -42.703125 0.58789062 C-41.46304688 0.37455078 -40.22296875 0.16121094 -38.9453125 -0.05859375 C-37.72070312 -0.28353516 -36.49609375 -0.50847656 -35.234375 -0.74023438 C-22.82035986 -2.92664282 -12.38472681 -2.22378913 0 0 Z " fill="#F6E7B0" transform="translate(106.6953125,208.37109375)"/>
<path d="M0 0 C2.11751562 0.1680568 4.23567196 0.35371076 6.33984375 0.64453125 C10.15183908 1.15391682 13.97904591 1.42059246 17.8125 1.71875 C20 2 20 2 21 3 C22.82958082 3.18711622 24.66438539 3.32393293 26.5 3.4375 C40.49055233 4.49055233 40.49055233 4.49055233 43 7 C44.62061944 7.18837458 46.24738478 7.3245352 47.875 7.4375 C53.6706109 7.90844086 59.30142641 8.86469424 65 10 C65 10.66 65 11.32 65 12 C66.74023438 11.95552734 66.74023438 11.95552734 68.515625 11.91015625 C72.73191245 11.91108331 76.61718926 12.57027365 80.75 13.4375 C87.4842668 14.79846235 94.13156678 15.62275651 101 16 C101 16.66 101 17.32 101 18 C102.98 18 104.96 18 107 18 C107.36289281 23.44339217 107.36289281 23.44339217 105.90234375 25.68359375 C103.0788603 27.63742111 100.76357657 27.32513474 97.375 27.25 C95.62316406 27.22679687 95.62316406 27.22679687 93.8359375 27.203125 C91 27 91 27 90 26 C88.1128125 25.814375 88.1128125 25.814375 86.1875 25.625 C81.26114823 25.13864043 76.64219771 23.94837665 71.86328125 22.69140625 C69.4269697 22.10310182 67.11226804 21.69906738 64.625 21.4375 C61 21 61 21 58.17260742 20.03735352 C54.96050287 18.98708555 51.95696348 18.43125913 48.61328125 17.96484375 C47.42798828 17.79533203 46.24269531 17.62582031 45.02148438 17.45117188 C43.79751953 17.28166016 42.57355469 17.11214844 41.3125 16.9375 C38.87075325 16.59486574 36.42932894 16.24992337 33.98828125 15.90234375 C32.91102783 15.75273193 31.83377441 15.60312012 30.72387695 15.44897461 C28 15 28 15 25 14 C25 13.34 25 12.68 25 12 C24.03175293 11.970271 24.03175293 11.970271 23.04394531 11.93994141 C20.11222779 11.84453672 17.18120768 11.73492029 14.25 11.625 C13.23421875 11.5940625 12.2184375 11.563125 11.171875 11.53125 C10.1921875 11.49257813 9.2125 11.45390625 8.203125 11.4140625 C7.30239258 11.3826416 6.40166016 11.3512207 5.47363281 11.31884766 C2.84141161 10.97955819 1.18471181 10.50684668 -1 9 C-1.875 5.5 -1.875 5.5 -2 2 C-1.34 1.34 -0.68 0.68 0 0 Z " fill="#3F5B69" transform="translate(99,20)"/>
<path d="M0 0 C0.77915771 0.04600342 1.55831543 0.09200684 2.36108398 0.1394043 C3.63048828 0.20998047 3.63048828 0.20998047 4.92553711 0.28198242 C5.81047852 0.34192383 6.69541992 0.40186523 7.60717773 0.46362305 C8.49598633 0.51196289 9.38479492 0.56030273 10.30053711 0.61010742 C16.90142743 1.00787274 16.90142743 1.00787274 18.04467773 2.15112305 C24.90921373 3.89348954 31.96921698 4.7489138 38.98217773 5.65112305 C62.25910979 8.75833907 62.25910979 8.75833907 69.04467773 12.15112305 C70.16967773 14.71362305 70.16967773 14.71362305 70.04467773 17.15112305 C68.04467773 19.15112305 68.04467773 19.15112305 64.78686523 19.34643555 C63.51069336 19.32323242 62.23452148 19.3000293 60.91967773 19.27612305 C58.99768555 19.24905273 58.99768555 19.24905273 57.03686523 19.22143555 C55.55573242 19.18663086 55.55573242 19.18663086 54.04467773 19.15112305 C54.04467773 18.49112305 54.04467773 17.83112305 54.04467773 17.15112305 C52.99666992 17.16852539 52.99666992 17.16852539 51.92749023 17.1862793 C50.56237305 17.19981445 50.56237305 17.19981445 49.16967773 17.21362305 C47.81229492 17.23102539 47.81229492 17.23102539 46.42749023 17.2487793 C44.04467773 17.15112305 44.04467773 17.15112305 42.04467773 16.15112305 C40.56720371 15.97788822 39.08377017 15.85396616 37.59936523 15.7565918 C27.20419235 14.99305746 17.40380752 13.87376012 7.35717773 11.0534668 C4.25845857 10.20935816 1.21927219 9.62053717 -1.95532227 9.15112305 C-1.95532227 8.49112305 -1.95532227 7.83112305 -1.95532227 7.15112305 C-2.61532227 7.15112305 -3.27532227 7.15112305 -3.95532227 7.15112305 C-4.08032227 4.77612305 -4.08032227 4.77612305 -3.95532227 2.15112305 C-1.95532227 0.15112305 -1.95532227 0.15112305 0 0 Z " fill="#3B5E62" transform="translate(113.955322265625,44.848876953125)"/>
<path d="M0 0 C2.7427508 -0.47114738 5.19558897 -0.17805784 8 0 C8.33 0.33 8.66 0.66 9 1 C11.91695511 1.33010809 14.82668591 1.61498901 17.75 1.875 C25.71618724 2.63668919 33.26056827 3.91577243 41 6 C41 7.98 41 9.96 41 12 C39.52093108 12.02689216 38.04172517 12.04634621 36.5625 12.0625 C35.32693359 12.07990234 35.32693359 12.07990234 34.06640625 12.09765625 C32 12 32 12 31 11 C29.15108054 10.76636119 27.29511969 10.58696365 25.4375 10.4375 C24.42558594 10.35371094 23.41367188 10.26992188 22.37109375 10.18359375 C21.58863281 10.12300781 20.80617187 10.06242187 20 10 C20 9.34 20 8.68 20 8 C19.28457031 8.01160156 18.56914062 8.02320313 17.83203125 8.03515625 C10.20204765 8.10425054 2.57982815 7.9518854 -5 7 C-5.33 6.67 -5.66 6.34 -6 6 C-7.34747084 5.76924918 -8.70377565 5.58846937 -10.0625 5.4375 C-11.361875 5.293125 -12.66125 5.14875 -14 5 C-14 4.67 -14 4.34 -14 4 C-13.15695313 3.96261719 -12.31390625 3.92523438 -11.4453125 3.88671875 C-9.80175781 3.78810547 -9.80175781 3.78810547 -8.125 3.6875 C-7.03445312 3.62949219 -5.94390625 3.57148437 -4.8203125 3.51171875 C-3.88960937 3.34285156 -2.95890625 3.17398438 -2 3 C-1.34 2.01 -0.68 1.02 0 0 Z " fill="#3F5B68" transform="translate(140,51)"/>
<path d="M0 0 C0.75466553 0.00451172 1.50933105 0.00902344 2.28686523 0.01367188 C3.04990967 0.01560547 3.8129541 0.01753906 4.59912109 0.01953125 C10.92381464 0.0672798 17.18475282 0.46002391 23.47436523 1.13867188 C23.47436523 1.79867187 23.47436523 2.45867188 23.47436523 3.13867188 C24.79436523 3.13867188 26.11436523 3.13867188 27.47436523 3.13867188 C27.14436523 5.44867188 26.81436523 7.75867187 26.47436523 10.13867188 C13.99212662 10.3522463 3.39492078 8.83163937 -8.52563477 5.13867188 C-6.16864511 0.26755991 -5.56496878 0.01530064 0 0 Z " fill="#405A63" transform="translate(176.525634765625,34.861328125)"/>
<path d="M0 0 C1.66611905 -0.042721 3.33382885 -0.04063832 5 0 C5.33 0.33 5.66 0.66 6 1 C7.62061944 1.18837458 9.24738478 1.3245352 10.875 1.4375 C16.6706109 1.90844086 22.30142641 2.86469424 28 4 C28 4.66 28 5.32 28 6 C29.0725 5.95875 30.145 5.9175 31.25 5.875 C36.93103623 5.85456462 42.43295193 6.96081769 48 8 C48 8.33 48 8.66 48 9 C47.09636719 9.02578125 46.19273437 9.0515625 45.26171875 9.078125 C44.08222656 9.13484375 42.90273437 9.1915625 41.6875 9.25 C39.92986328 9.31960937 39.92986328 9.31960937 38.13671875 9.390625 C34.90521318 9.70054149 34.90521318 9.70054149 33.08203125 12.046875 C32.72496094 12.69140625 32.36789063 13.3359375 32 14 C33.19625 14.12375 34.3925 14.2475 35.625 14.375 C38.15987318 14.63722826 40.19308331 15.07211545 42.59375 15.96875 C47.30703538 17.39570796 51.98168496 17.720539 56.875 18.125 C57.84953125 18.21136719 58.8240625 18.29773438 59.828125 18.38671875 C62.21826446 18.59761341 64.60877625 18.80184637 67 19 C67.33 16.69 67.66 14.38 68 12 C68.66 12 69.32 12 70 12 C70.36289281 17.44339217 70.36289281 17.44339217 68.90234375 19.68359375 C66.0788603 21.63742111 63.76357657 21.32513474 60.375 21.25 C58.62316406 21.22679687 58.62316406 21.22679687 56.8359375 21.203125 C54 21 54 21 53 20 C51.741875 19.87625 50.48375 19.7525 49.1875 19.625 C44.26114823 19.13864043 39.64219771 17.94837665 34.86328125 16.69140625 C32.4269697 16.10310182 30.11226804 15.69906738 27.625 15.4375 C24 15 24 15 21.359375 14.07421875 C17.15908495 12.73110275 12.97406358 12.05475794 8.625 11.375 C7.79355469 11.2409375 6.96210938 11.106875 6.10546875 10.96875 C4.07102597 10.6413684 2.03560684 10.32006397 0 10 C0 9.67 0 9.34 0 9 C2.47923801 8.97314905 4.9581884 8.95323453 7.4375 8.9375 C8.14455078 8.92912109 8.85160156 8.92074219 9.58007812 8.91210938 C11.38693559 8.90346412 13.19387603 8.94779989 15 9 C15.33 9.33 15.66 9.66 16 10 C21.00350833 10.35814586 26.12636401 10.218409 31 9 C31.33 8.34 31.66 7.68 32 7 C29.36 7.33 26.72 7.66 24 8 C24 7.34 24 6.68 24 6 C23.41508789 5.92483154 22.83017578 5.84966309 22.22753906 5.7722168 C19.56655319 5.42310094 16.90843634 5.05550668 14.25 4.6875 C12.86941406 4.51057617 12.86941406 4.51057617 11.4609375 4.33007812 C10.12675781 4.14155273 10.12675781 4.14155273 8.765625 3.94921875 C7.94868164 3.83924561 7.13173828 3.72927246 6.29003906 3.6159668 C3.64978332 2.90579993 2.07194857 1.75366731 0 0 Z " fill="#4E5756" transform="translate(136,26)"/>
<path d="M0 0 C2.11751562 0.1680568 4.23567196 0.35371076 6.33984375 0.64453125 C10.15183908 1.15391682 13.97904591 1.42059246 17.8125 1.71875 C20 2 20 2 21 3 C24.06886617 3.28474016 27.13775297 3.44871799 30.21484375 3.62109375 C33 4 33 4 35 6 C29.06 5.67 23.12 5.34 17 5 C17.33 6.32 17.66 7.64 18 9 C21.63 9.66 25.26 10.32 29 11 C29 11.66 29 12.32 29 13 C31.64 13.33 34.28 13.66 37 14 C37 14.33 37 14.66 37 15 C35.56260487 15.02712066 34.12506137 15.04645067 32.6875 15.0625 C31.48673828 15.07990234 31.48673828 15.07990234 30.26171875 15.09765625 C28 15 28 15 25 14 C25 13.34 25 12.68 25 12 C24.03175293 11.970271 24.03175293 11.970271 23.04394531 11.93994141 C20.11222779 11.84453672 17.18120768 11.73492029 14.25 11.625 C13.23421875 11.5940625 12.2184375 11.563125 11.171875 11.53125 C10.1921875 11.49257813 9.2125 11.45390625 8.203125 11.4140625 C7.30239258 11.3826416 6.40166016 11.3512207 5.47363281 11.31884766 C2.84141161 10.97955819 1.18471181 10.50684668 -1 9 C-1.875 5.5 -1.875 5.5 -2 2 C-1.34 1.34 -0.68 0.68 0 0 Z " fill="#485664" transform="translate(99,20)"/>
<path d="M0 0 C4.8333472 -0.08333357 9.23692563 0.04738513 14 1 C14 1.66 14 2.32 14 3 C15.299375 2.979375 16.59875 2.95875 17.9375 2.9375 C19.29165633 2.91600546 20.64756083 2.92851801 22 3 C22.33 3.33 22.66 3.66 23 4 C24.8499996 4.228226 26.70765514 4.39504938 28.56640625 4.53515625 C30.2534668 4.66567383 30.2534668 4.66567383 31.97460938 4.79882812 C33.75061523 4.9293457 33.75061523 4.9293457 35.5625 5.0625 C36.75037109 5.15337891 37.93824219 5.24425781 39.16210938 5.33789062 C42.10778905 5.56266136 45.05372674 5.78317196 48 6 C48 6.66 48 7.32 48 8 C48.78246094 7.98839844 49.56492188 7.97679687 50.37109375 7.96484375 C51.38300781 7.95582031 52.39492187 7.94679688 53.4375 7.9375 C54.44683594 7.92589844 55.45617187 7.91429687 56.49609375 7.90234375 C59 8 59 8 60 9 C61.51469448 9.23192865 63.03754562 9.41215238 64.5625 9.5625 C65.38878906 9.64628906 66.21507812 9.73007812 67.06640625 9.81640625 C67.70449219 9.87699219 68.34257812 9.93757813 69 10 C69 8.02 69 6.04 69 4 C68.01 3.505 68.01 3.505 67 3 C68.32 3.33 69.64 3.66 71 4 C71.625 6.375 71.625 6.375 72 9 C70 11 70 11 66.7421875 11.1953125 C65.46601563 11.17210938 64.18984375 11.14890625 62.875 11.125 C60.95300781 11.09792969 60.95300781 11.09792969 58.9921875 11.0703125 C57.51105469 11.03550781 57.51105469 11.03550781 56 11 C56 10.34 56 9.68 56 9 C54.95199219 9.01740234 54.95199219 9.01740234 53.8828125 9.03515625 C52.51769531 9.04869141 52.51769531 9.04869141 51.125 9.0625 C49.76761719 9.07990234 49.76761719 9.07990234 48.3828125 9.09765625 C46 9 46 9 44 8 C42.52252598 7.82676518 41.03909244 7.70284311 39.5546875 7.60546875 C29.15951461 6.84193442 19.35912979 5.72263707 9.3125 2.90234375 C6.21378083 2.05823511 3.17459446 1.46941412 0 1 C0 0.67 0 0.34 0 0 Z " fill="#7C5556" transform="translate(112,53)"/>
<path d="M0 0 C3.3 0 6.6 0 10 0 C10 0.66 10 1.32 10 2 C11.32 2 12.64 2 14 2 C13.67 4.31 13.34 6.62 13 9 C-1.94640046 9.25573689 -1.94640046 9.25573689 -8 8 C-8.66 7.34 -9.32 6.68 -10 6 C-6.04 6.33 -2.08 6.66 2 7 C1.34 4.69 0.68 2.38 0 0 Z " fill="#4E585E" transform="translate(190,36)"/>
<path d="M0 0 C3.63 0 7.26 0 11 0 C11.33 0.99 11.66 1.98 12 3 C12.66 3.33 13.32 3.66 14 4 C10.06902879 4.73993409 6.13637483 5.47005957 2.2019043 6.19116211 C0.86384078 6.43782247 -0.47373343 6.6871528 -1.81079102 6.93920898 C-3.73322753 7.30113818 -5.65761367 7.65266294 -7.58203125 8.00390625 C-8.73936768 8.21861572 -9.8967041 8.4333252 -11.08911133 8.65454102 C-14 9 -14 9 -17 8 C-11.60931587 4.40621058 -8.46326465 3.54643757 -2 4 C-1.34 2.68 -0.68 1.36 0 0 Z " fill="#F3E4B4" transform="translate(105,224)"/>
<path d="M0 0 C6.24451109 0.43531447 12.35286627 1.35224942 18.5 2.5 C19.20640625 2.63059814 19.9128125 2.76119629 20.640625 2.89575195 C25.74334298 3.87167149 25.74334298 3.87167149 28 5 C29.5912342 5.21941219 31.18929031 5.39059852 32.7890625 5.53515625 C34.20058594 5.66567383 34.20058594 5.66567383 35.640625 5.79882812 C37.11789063 5.9293457 37.11789063 5.9293457 38.625 6.0625 C39.61757812 6.15337891 40.61015625 6.24425781 41.6328125 6.33789062 C44.08823868 6.56218436 46.54394389 6.78273107 49 7 C49.33 4.69 49.66 2.38 50 0 C50.66 0 51.32 0 52 0 C52.36289281 5.44339217 52.36289281 5.44339217 50.90234375 7.68359375 C48.0788603 9.63742111 45.76357657 9.32513474 42.375 9.25 C40.62316406 9.22679687 40.62316406 9.22679687 38.8359375 9.203125 C36 9 36 9 35 8 C33.741875 7.87625 32.48375 7.7525 31.1875 7.625 C26.26114823 7.13864043 21.64219771 5.94837665 16.86328125 4.69140625 C14.4269697 4.10310182 12.11226804 3.69906738 9.625 3.4375 C6.16599766 3.0200342 3.25235954 2.21963483 0 1 C0 0.67 0 0.34 0 0 Z " fill="#B25654" transform="translate(154,38)"/>
<path d="M0 0 C6.15234375 -0.09765625 6.15234375 -0.09765625 8 0 C8.33 0.33 8.66 0.66 9 1 C15.86452428 2.74236352 22.92454108 3.59785198 29.9375 4.5 C48.75430962 7.010907 48.75430962 7.010907 52 8 C52.495 8.99 52.495 8.99 53 10 C52.14019531 9.86722656 51.28039062 9.73445313 50.39453125 9.59765625 C43.07020008 8.50339958 35.84583362 7.68328811 28.44921875 7.24609375 C26 7 26 7 25 6 C22.98405418 5.76572222 20.961526 5.58663876 18.9375 5.4375 C17.83277344 5.35371094 16.72804687 5.26992188 15.58984375 5.18359375 C14.73519531 5.12300781 13.88054687 5.06242187 13 5 C13 4.34 13 3.68 13 3 C11.7315625 3.061875 11.7315625 3.061875 10.4375 3.125 C6.57786731 2.98464972 3.66311987 2.17219836 0 1 C0 0.67 0 0.34 0 0 Z " fill="#7C555C" transform="translate(123,46)"/>
<path d="M0 0 C1.97265625 0.265625 1.97265625 0.265625 4.97265625 2.265625 C3.65265625 2.595625 2.33265625 2.925625 0.97265625 3.265625 C2.62265625 3.595625 4.27265625 3.925625 5.97265625 4.265625 C5.97265625 5.255625 5.97265625 6.245625 5.97265625 7.265625 C1.4631398 8.35884111 -3.74735021 9.40562177 -8.02734375 7.265625 C-8.15234375 4.890625 -8.15234375 4.890625 -8.02734375 2.265625 C-5.42029477 -0.34142398 -3.55396134 0.02657167 0 0 Z " fill="#42576A" transform="translate(118.02734375,44.734375)"/>
<path d="M0 0 C2.95867918 0.14046255 5.91682264 0.28712224 8.875 0.4375 C9.71675781 0.47681641 10.55851563 0.51613281 11.42578125 0.55664062 C12.23144531 0.59853516 13.03710938 0.64042969 13.8671875 0.68359375 C14.98262939 0.73858032 14.98262939 0.73858032 16.12060547 0.79467773 C18 1 18 1 20 2 C21.70363822 2.22622081 23.41328701 2.40888473 25.125 2.5625 C26.03507812 2.64628906 26.94515625 2.73007813 27.8828125 2.81640625 C28.58148438 2.87699219 29.28015625 2.93757812 30 3 C30 3.66 30 4.32 30 5 C33.3 5 36.6 5 40 5 C40 3.68 40 2.36 40 1 C40.66 1 41.32 1 42 1 C41.625 3.4375 41.625 3.4375 41 6 C33.73324994 9.63337503 20.36170944 4.91273359 12.75 3.4375 C10.89955078 3.08655273 10.89955078 3.08655273 9.01171875 2.72851562 C6.00672553 2.15779986 3.00291185 1.58154983 0 1 C0 0.67 0 0.34 0 0 Z " fill="#F9CCC1" transform="translate(143,130)"/>
<path d="M0 0 C1.77155654 0.11429397 3.54226229 0.24183037 5.3125 0.375 C6.79169922 0.47941406 6.79169922 0.47941406 8.30078125 0.5859375 C11 1 11 1 14 3 C14.32351874 7.8527811 13.9560073 12.21996348 13 17 C12.34 17 11.68 17 11 17 C10.87625 16.360625 10.7525 15.72125 10.625 15.0625 C10.41875 14.381875 10.2125 13.70125 10 13 C9.34 12.67 8.68 12.34 8 12 C7.91995518 8.4780279 7.95994298 5.38018531 9 2 C6.36 2 3.72 2 1 2 C0.67 1.34 0.34 0.68 0 0 Z " fill="#F5E5D8" transform="translate(178,83)"/>
<path d="M0 0 C2.31 0.33 4.62 0.66 7 1 C4.23776722 3.76223278 1.79293383 3.57856291 -2 4 C-2 4.66 -2 5.32 -2 6 C-2.66 6 -3.32 6 -4 6 C-3.85892253 7.45880109 -3.71197585 8.91703551 -3.5625 10.375 C-3.48128906 11.18710938 -3.40007813 11.99921875 -3.31640625 12.8359375 C-3.10909886 15.04272805 -3.10909886 15.04272805 -2 17 C-4.475 16.01 -4.475 16.01 -7 15 C-7.45995423 5.95423341 -7.45995423 5.95423341 -4 2 C-2.68 2 -1.36 2 0 2 C0 1.34 0 0.68 0 0 Z " fill="#6B3641" transform="translate(55,182)"/>
<path d="M0 0 C2.64708601 0.32448684 5.29235691 0.65986679 7.9375 1 C7.9375 1.66 7.9375 2.32 7.9375 3 C9.2575 3.33 10.5775 3.66 11.9375 4 C5.78515625 4.09765625 5.78515625 4.09765625 3.9375 4 C3.6075 3.67 3.2775 3.34 2.9375 3 C0.51918921 2.59596515 -1.88186411 2.24647914 -4.3125 1.9375 C-4.98152344 1.84662109 -5.65054688 1.75574219 -6.33984375 1.66210938 C-9.92913461 1.19317452 -13.44242393 0.78905572 -17.0625 1 C-18.41868499 2.12534105 -18.41868499 2.12534105 -18.125 5.0625 C-18.104375 6.031875 -18.08375 7.00125 -18.0625 8 C-19.0525 7.67 -20.0425 7.34 -21.0625 7 C-21.42971482 2.47101719 -21.42971482 2.47101719 -19.77734375 0.3515625 C-15.09471526 -3.33907408 -5.64338522 -0.6660949 0 0 Z " fill="#B65654" transform="translate(116.0625,20)"/>
<path d="M0 0 C0.86963379 0.1539624 1.73926758 0.3079248 2.63525391 0.46655273 C5.70960095 0.9539601 8.73460402 1.28504871 11.8359375 1.53515625 C12.89941406 1.62216797 13.96289062 1.70917969 15.05859375 1.79882812 C16.15300781 1.88583984 17.24742188 1.97285156 18.375 2.0625 C20.05142578 2.19881836 20.05142578 2.19881836 21.76171875 2.33789062 C24.50763829 2.5608499 27.25372413 2.78148118 30 3 C30 3.66 30 4.32 30 5 C32.64 5.33 35.28 5.66 38 6 C38 6.33 38 6.66 38 7 C36.56260487 7.02712066 35.12506137 7.04645067 33.6875 7.0625 C32.48673828 7.07990234 32.48673828 7.07990234 31.26171875 7.09765625 C29 7 29 7 26 6 C26 5.34 26 4.68 26 4 C25.03175293 3.970271 25.03175293 3.970271 24.04394531 3.93994141 C21.11222779 3.84453672 18.18120768 3.73492029 15.25 3.625 C14.23421875 3.5940625 13.2184375 3.563125 12.171875 3.53125 C11.1921875 3.49257813 10.2125 3.45390625 9.203125 3.4140625 C8.30239258 3.3826416 7.40166016 3.3512207 6.47363281 3.31884766 C3.91177125 2.98862744 2.21872563 2.29048327 0 1 C0 0.67 0 0.34 0 0 Z " fill="#8E5654" transform="translate(98,28)"/>
<path d="M0 0 C10.55808656 0.96355353 10.55808656 0.96355353 15 2 C15 2.33 15 2.66 15 3 C7.08 3.495 7.08 3.495 -1 4 C-1.12375 5.423125 -1.2475 6.84625 -1.375 8.3125 C-1.67875982 11.80573798 -1.97649676 12.96474514 -4 16 C-3.40546697 4.29384966 -3.40546697 4.29384966 0 0 Z " fill="#F7CCC1" transform="translate(94,68)"/>
<path d="M0 0 C0.33 0.66 0.66 1.32 1 2 C3.80419732 2.62215622 3.80419732 2.62215622 7.125 3 C11.9306407 3.66612841 16.39262718 4.49992513 21 6 C21 6.33 21 6.66 21 7 C13.97289671 7.27289722 7.40898441 6.22312164 0.5 5 C-0.60859375 4.80921875 -1.7171875 4.6184375 -2.859375 4.421875 C-5.57400201 3.95383586 -8.28742095 3.47974117 -11 3 C-11 2.67 -11 2.34 -11 2 C-9.5422647 1.664061 -8.08378894 1.33133376 -6.625 1 C-5.40683594 0.7215625 -5.40683594 0.7215625 -4.1640625 0.4375 C-2 0 -2 0 0 0 Z " fill="#B05752" transform="translate(175,29)"/>
<path d="M0 0 C0.33 0 0.66 0 1 0 C1.08997924 5.12881696 0.93119789 9.9301448 0 15 C-0.33 15.33 -0.66 15.66 -1 16 C-1.39666227 18.18019479 -1.74315237 20.3696463 -2.0625 22.5625 C-2.23910156 23.76003906 -2.41570313 24.95757812 -2.59765625 26.19140625 C-2.73042969 27.11824219 -2.86320312 28.04507813 -3 29 C-2.34 29.33 -1.68 29.66 -1 30 C-2.98 30.99 -2.98 30.99 -5 32 C-4.76143298 29.61432981 -4.52188029 27.22881869 -4.27734375 24.84375 C-4.1048086 23.07465719 -3.94822872 21.30384149 -3.81640625 19.53125 C-3.28184427 12.81104224 -1.77448944 6.49530098 0 0 Z " fill="#C75251" transform="translate(63,110)"/>
<path d="M0 0 C7.75 -0.125 7.75 -0.125 10 1 C11.33857726 1.13844275 12.68280098 1.22503427 14.02734375 1.28125 C15.21553711 1.33732422 15.21553711 1.33732422 16.42773438 1.39453125 C17.25595703 1.42933594 18.08417969 1.46414062 18.9375 1.5 C20.57178464 1.56900029 22.20591575 1.64176558 23.83984375 1.71875 C24.56550537 1.74904297 25.29116699 1.77933594 26.03881836 1.81054688 C28 2 28 2 31 3 C31 3.66 31 4.32 31 5 C20.45358894 4.51529965 10.34968279 2.99225129 0 1 C0 0.67 0 0.34 0 0 Z " fill="#433647" transform="translate(176,222)"/>
<path d="M0 0 C4.8333472 -0.08333357 9.23692563 0.04738513 14 1 C10.89234404 2.74028734 8.0636951 3.51314066 4.5625 4.125 C3.63566406 4.29257813 2.70882812 4.46015625 1.75390625 4.6328125 C-0.87053825 4.98273843 -3.35642353 5.06716891 -6 5 C-6 4.34 -6 3.68 -6 3 C-4.02 2.67 -2.04 2.34 0 2 C0 1.34 0 0.68 0 0 Z " fill="#2C333C" transform="translate(72,204)"/>
<path d="M0 0 C6.75 -0.125 6.75 -0.125 9 1 C10.70363822 1.22622081 12.41328701 1.40888473 14.125 1.5625 C15.03507813 1.64628906 15.94515625 1.73007812 16.8828125 1.81640625 C17.58148438 1.87699219 18.28015625 1.93757813 19 2 C19 2.66 19 3.32 19 4 C21.29199177 3.85936865 23.58359186 3.71234057 25.875 3.5625 C27.15117187 3.48128906 28.42734375 3.40007813 29.7421875 3.31640625 C32.88300152 3.20793973 32.88300152 3.20793973 35 2 C34.67 2.99 34.34 3.98 34 5 C31.02077407 5.02683987 28.04178705 5.04676037 25.0625 5.0625 C23.78729492 5.07506836 23.78729492 5.07506836 22.48632812 5.08789062 C21.67744141 5.09111328 20.86855469 5.09433594 20.03515625 5.09765625 C19.2862915 5.10289307 18.53742676 5.10812988 17.76586914 5.11352539 C16 5 16 5 15 4 C13.42558539 3.62680543 11.83979215 3.30102573 10.25 3 C8.95835937 2.7525 8.95835937 2.7525 7.640625 2.5 C6.33351562 2.2525 6.33351562 2.2525 5 2 C3.33298004 1.66843802 1.66620403 1.33563822 0 1 C0 0.67 0 0.34 0 0 Z " fill="#BA544E" transform="translate(149,60)"/>
<path d="M0 0 C2.12493141 -0.02693575 4.24995912 -0.04636628 6.375 -0.0625 C7.55835938 -0.07410156 8.74171875 -0.08570313 9.9609375 -0.09765625 C13 0 13 0 15 1 C17.87910588 1.23274209 20.74146495 1.41972757 23.625 1.5625 C24.42679688 1.60568359 25.22859375 1.64886719 26.0546875 1.69335938 C28.0362511 1.79951457 30.01810271 1.90026855 32 2 C32.495 2.99 32.495 2.99 33 4 C29.37445665 3.88848666 25.74980383 3.75826485 22.125 3.625 C20.60519531 3.57859375 20.60519531 3.57859375 19.0546875 3.53125 C12.52237962 3.28000739 6.36384183 2.50142207 0 1 C0 0.67 0 0.34 0 0 Z " fill="#6E353D" transform="translate(176,221)"/>
<path d="M0 0 C6.49678438 -0.29530838 12.6221448 0.82706111 19 2 C19 2.66 19 3.32 19 4 C16.36 4.33 13.72 4.66 11 5 C11 4.34 11 3.68 11 3 C8.36 3.33 5.72 3.66 3 4 C3 3.01 3 2.02 3 1 C2.01 0.67 1.02 0.34 0 0 Z " fill="#3A3C46" transform="translate(53,200)"/>
<path d="M0 0 C1.32 0 2.64 0 4 0 C4.27429625 5.39449293 4.36055646 8.51925805 1 13 C-0.9078584 9.8250906 -1.1609041 7.89414789 -0.625 4.25 C-0.51414063 3.45078125 -0.40328125 2.6515625 -0.2890625 1.828125 C-0.19367188 1.22484375 -0.09828125 0.6215625 0 0 Z " fill="#F4DAA8" transform="translate(210,190)"/>
<path d="M0 0 C7.53216715 0.44238385 14.6802723 1.13905228 22 3 C22 3.33 22 3.66 22 4 C17.38 4.33 12.76 4.66 8 5 C8 4.34 8 3.68 8 3 C5.36 2.67 2.72 2.34 0 2 C0 1.34 0 0.68 0 0 Z " fill="#F9D8D1" transform="translate(155,79)"/>
<path d="M0 0 C7.53216715 0.44238385 14.6802723 1.13905228 22 3 C22 3.33 22 3.66 22 4 C18.37 4.66 14.74 5.32 11 6 C10.67 4.68 10.34 3.36 10 2 C8.081875 2.061875 8.081875 2.061875 6.125 2.125 C3.9453125 2.1953125 3.9453125 2.1953125 2 2 C1.34 1.34 0.68 0.68 0 0 Z " fill="#F7D0CA" transform="translate(110,71)"/>
<path d="M0 0 C0 0.33 0 0.66 0 1 C-2.76937583 1.52992381 -5.54003079 2.0492458 -8.3125 2.5625 C-9.09818359 2.71396484 -9.88386719 2.86542969 -10.69335938 3.02148438 C-11.45068359 3.16005859 -12.20800781 3.29863281 -12.98828125 3.44140625 C-13.68477783 3.57232666 -14.38127441 3.70324707 -15.09887695 3.83813477 C-17 4 -17 4 -20 3 C-13.47320386 -2.00893657 -7.90104282 -1.0930766 0 0 Z " fill="#E2E1B6" transform="translate(108,229)"/>
<path d="M0 0 C10.55808656 -0.18451025 10.55808656 -0.18451025 15 1 C11.65479742 2.93242285 8.55232518 3.5463853 4.75 4.125 C3.67234375 4.29257813 2.5946875 4.46015625 1.484375 4.6328125 C0.66453125 4.75398437 -0.1553125 4.87515625 -1 5 C-0.34 4.67 0.32 4.34 1 4 C0.67 2.68 0.34 1.36 0 0 Z " fill="#24353F" transform="translate(49,208)"/>
<path d="M0 0 C0.66 0 1.32 0 2 0 C2 0.99 2 1.98 2 3 C1.34 3 0.68 3 0 3 C0 4.32 0 5.64 0 7 C-3.3 7 -6.6 7 -10 7 C-9.67 6.01 -9.34 5.02 -9 4 C-6.93359375 3.26953125 -6.93359375 3.26953125 -4.4375 2.8125 C-3.61121094 2.65394531 -2.78492188 2.49539062 -1.93359375 2.33203125 C-1.29550781 2.22246094 -0.65742188 2.11289063 0 2 C0 1.34 0 0.68 0 0 Z " fill="#EDF1E0" transform="translate(183,128)"/>
<path d="M0 0 C2.02408755 0.09002398 4.04544287 0.24641038 6.0625 0.4375 C7.71958984 0.59025391 7.71958984 0.59025391 9.41015625 0.74609375 C10.26480469 0.82988281 11.11945313 0.91367188 12 1 C12 1.66 12 2.32 12 3 C10.41913952 3.36504603 8.83516093 3.71660506 7.25 4.0625 C6.36828125 4.25972656 5.4865625 4.45695313 4.578125 4.66015625 C2.01320972 4.99825872 0.42908361 4.81158635 -2 4 C-1.01 4 -0.02 4 1 4 C1 3.34 1 2.68 1 2 C0.34 1.67 -0.32 1.34 -1 1 C-0.67 0.67 -0.34 0.34 0 0 Z " fill="#DCC8A8" transform="translate(152,217)"/>
<path d="M0 0 C7.4071181 0.62272232 14.68194135 1.70487966 22 3 C22 3.33 22 3.66 22 4 C19.85423363 4.02685938 17.70837355 4.04633088 15.5625 4.0625 C14.36753906 4.07410156 13.17257813 4.08570312 11.94140625 4.09765625 C9 4 9 4 8 3 C6.65252916 2.76924918 5.29622435 2.58846937 3.9375 2.4375 C2.638125 2.293125 1.33875 2.14875 0 2 C0 1.34 0 0.68 0 0 Z " fill="#FBDCD8" transform="translate(132,75)"/>
<path d="M0 0 C0.33 0 0.66 0 1 0 C1.04254356 1.99954746 1.04080783 4.00041636 1 6 C0.67 6.33 0.34 6.66 0 7 C-0.44629969 10.17660368 -0.82156316 13.35172631 -1.16210938 16.54101562 C-1.78671875 21.78671875 -1.78671875 21.78671875 -4 24 C-4.02689216 22.52093108 -4.04634621 21.04172517 -4.0625 19.5625 C-4.07410156 18.73878906 -4.08570312 17.91507813 -4.09765625 17.06640625 C-4 15 -4 15 -3 14 C-2.6279752 12.4043624 -2.30180201 10.79789665 -2 9.1875 C-1.41570087 6.09710537 -0.79460128 3.04360667 0 0 Z " fill="#584444" transform="translate(73,46)"/>
<path d="M0 0 C5.19209404 -0.21192221 9.126739 0.4087311 14 2 C14 2.33 14 2.66 14 3 C13.33613281 2.97679687 12.67226562 2.95359375 11.98828125 2.9296875 C5.27138984 2.76375695 5.27138984 2.76375695 -1 5 C-0.67 3.35 -0.34 1.7 0 0 Z " fill="#EDD1B4" transform="translate(64,157)"/>
<path d="M0 0 C5.35810969 -0.16898112 10.19349172 0.43488578 15.4375 1.5 C16.16904297 1.64308594 16.90058594 1.78617188 17.65429688 1.93359375 C19.43735486 2.28321296 21.21885203 2.64077688 23 3 C23 3.33 23 3.66 23 4 C16.565 4.495 16.565 4.495 10 5 C10 4.01 10 3.02 10 2 C6.7 1.67 3.4 1.34 0 1 C0 0.67 0 0.34 0 0 Z " fill="#D24B45" transform="translate(118,127)"/>
<path d="M0 0 C1.875 0.5625 1.875 0.5625 4 2 C6.17878722 7.33802868 6.23302133 12.2909775 6 18 C5.690625 17.360625 5.38125 16.72125 5.0625 16.0625 C4.1654837 14.06389179 4.1654837 14.06389179 3 13 C2.71612221 10.77854367 2.55234827 8.55682352 2.37890625 6.32421875 C1.98034823 3.87945563 1.21258013 2.14533408 0 0 Z " fill="#A0362D" transform="translate(226,178)"/>
<path d="M0 0 C0.66 0 1.32 0 2 0 C1.690625 0.639375 1.38125 1.27875 1.0625 1.9375 C-0.83510278 7.40706097 -1.1861394 13.22967859 -1 19 C-1.99 18.67 -2.98 18.34 -4 18 C-4.08078641 15.87561661 -4.13909141 13.7503677 -4.1875 11.625 C-4.22230469 10.44164062 -4.25710937 9.25828125 -4.29296875 8.0390625 C-4.19628906 7.03617188 -4.09960938 6.03328125 -4 5 C-3.01 4.34 -2.02 3.68 -1 3 C-0.67 2.01 -0.34 1.02 0 0 Z " fill="#2B3745" transform="translate(44,214)"/>
<path d="M0 0 C0.33 0 0.66 0 1 0 C0.22095672 14.78132118 0.22095672 14.78132118 -2 21 C-2.33 21 -2.66 21 -3 21 C-3.21859211 14.98871706 -2.49689006 9.81274098 -1 4 C-0.81308594 3.25234375 -0.62617187 2.5046875 -0.43359375 1.734375 C-0.29050781 1.16203125 -0.14742188 0.5896875 0 0 Z " fill="#B3514F" transform="translate(71,64)"/>
<path d="M0 0 C2.43816585 -0.0809723 4.87364384 -0.14046972 7.3125 -0.1875 C8.34793945 -0.22520508 8.34793945 -0.22520508 9.40429688 -0.26367188 C14.55674183 -0.33834499 14.55674183 -0.33834499 16.98046875 1.51171875 C17.31691406 2.00285156 17.65335938 2.49398437 18 3 C15.74943278 2.88566637 13.49953326 2.75813564 11.25 2.625 C9.99703125 2.55539063 8.7440625 2.48578125 7.453125 2.4140625 C4.39001879 2.04676696 2.58025734 1.60288714 0 0 Z " fill="#7E5657" transform="translate(136,35)"/>
<path d="M0 0 C6.88940671 0.43632909 13.35751464 1.08389845 20 3 C20 3.33 20 3.66 20 4 C13.04958914 4.26618595 6.76485645 3.6120509 0 2 C0 1.34 0 0.68 0 0 Z " fill="#922D2D" transform="translate(120,149)"/>
<path d="M0 0 C1.32 0.33 2.64 0.66 4 1 C4 2.32 4 3.64 4 5 C1.83032311 5.95465783 0.43671207 6.14401212 -1.82421875 5.3984375 C-3.5684743 4.64129615 -5.28627131 3.82390802 -7 3 C-5 2 -5 2 -1 2 C-0.67 1.34 -0.34 0.68 0 0 Z " fill="#5E5564" transform="translate(104,24)"/>
<path d="M0 0 C2.475 0.99 2.475 0.99 5 2 C4.34 3.32 3.68 4.64 3 6 C0.03 5.505 0.03 5.505 -3 5 C-1.125 1.125 -1.125 1.125 0 0 Z " fill="#3B5E6A" transform="translate(100,21)"/>
<path d="M0 0 C1.125 3.75 1.125 3.75 0 6 C-0.38923527 8.36950521 -0.7380578 10.7457572 -1.0625 13.125 C-1.23910156 14.40632812 -1.41570313 15.68765625 -1.59765625 17.0078125 C-1.73042969 17.99523437 -1.86320312 18.98265625 -2 20 C-2.33 20 -2.66 20 -3 20 C-3.33 17.36 -3.66 14.72 -4 12 C-3.34 12 -2.68 12 -2 12 C-2 9.03 -2 6.06 -2 3 C-1.34 3 -0.68 3 0 3 C0 2.01 0 1.02 0 0 Z " fill="#5A4450" transform="translate(61,116)"/>
<path d="M0 0 C0.33 0 0.66 0 1 0 C1.05382106 2.62527189 1.09358313 5.24944713 1.125 7.875 C1.14175781 8.62136719 1.15851563 9.36773437 1.17578125 10.13671875 C1.1933959 12.09194461 1.10320189 14.04742021 1 16 C0.34 16.66 -0.32 17.32 -1 18 C-1.33 17.67 -1.66 17.34 -2 17 C-1.9140625 15.21484375 -1.9140625 15.21484375 -1.625 12.9375 C-1.52574219 12.133125 -1.42648438 11.32875 -1.32421875 10.5 C-1.21722656 9.675 -1.11023438 8.85 -1 8 C-0.81239874 6.47917915 -0.62489006 4.95834688 -0.4375 3.4375 C-0.293125 2.303125 -0.14875 1.16875 0 0 Z " fill="#F8CCC7" transform="translate(86,101)"/>
<path d="M0 0 C3.63 0 7.26 0 11 0 C11 0.66 11 1.32 11 2 C14.3 2 17.6 2 21 2 C21.33 2.66 21.66 3.32 22 4 C19.68715544 3.85973717 17.37472409 3.71264442 15.0625 3.5625 C13.13083984 3.44068359 13.13083984 3.44068359 11.16015625 3.31640625 C8 3 8 3 7 2 C4.67182036 1.63239269 2.3381615 1.29758419 0 1 C0 0.67 0 0.34 0 0 Z " fill="#BD574C" transform="translate(134,25)"/>
<path d="M0 0 C7.31110994 -0.3689719 13.21256822 0.18447274 20 3 C15.70272603 4.30660357 12.39784135 3.6596762 8 3 C8 2.34 8 1.68 8 1 C5.36 1 2.72 1 0 1 C0 0.67 0 0.34 0 0 Z " fill="#65373F" transform="translate(64,201)"/>
<path d="M0 0 C1.09337693 3.44579398 1.01923365 6.41021795 0.75 10 C0.68296875 11.03125 0.6159375 12.0625 0.546875 13.125 C-0.03938686 16.20706233 -0.93166201 17.68701989 -3 20 C-3.48452463 13.05514697 -1.69287491 6.7009632 0 0 Z " fill="#AE5251" transform="translate(67,85)"/>
<path d="M0 0 C2.33294775 -0.04241723 4.66702567 -0.04092937 7 0 C7.33 0.33 7.66 0.66 8 1 C11.06886617 1.28474016 14.13775297 1.44871799 17.21484375 1.62109375 C20 2 20 2 22 4 C19.27001324 3.88562349 16.5415418 3.75888594 13.8125 3.625 C13.04357422 3.5940625 12.27464844 3.563125 11.48242188 3.53125 C7.26102289 3.31383889 3.85927672 2.90256928 0 1 C0 0.67 0 0.34 0 0 Z " fill="#78585A" transform="translate(112,22)"/>
<path d="M0 0 C0.66 0.33 1.32 0.66 2 1 C2.37890625 2.92578125 2.37890625 2.92578125 2.5625 5.3125 C2.80590173 8.31776628 3.1945856 11.0911893 4 14 C1.55876483 12.188761 0.17886421 10.76350989 -0.5234375 7.765625 C-0.7913987 5.4915759 -1.0232272 3.29020162 -1 1 C-0.67 0.67 -0.34 0.34 0 0 Z " fill="#D4D4B2" transform="translate(43,221)"/>
<path d="M0 0 C2.64 0 5.28 0 8 0 C7.67 1.32 7.34 2.64 7 4 C7 3.34 7 2.68 7 2 C6.113125 2.33 5.22625 2.66 4.3125 3 C1.29076653 3.91222143 -0.88373706 4.18330958 -4 4 C-2.68 3.67 -1.36 3.34 0 3 C0 2.01 0 1.02 0 0 Z " fill="#DE4B4F" transform="translate(168,27)"/>
<path d="M0 0 C0 0.33 0 0.66 0 1 C-5.28 1.66 -10.56 2.32 -16 3 C-15 1 -15 1 -11.9375 -0.1875 C-7.73494264 -1.31225083 -4.24886887 -0.74541559 0 0 Z " fill="#E1DABE" transform="translate(148,222)"/>
<path d="M0 0 C0.66 0 1.32 0 2 0 C2.125 2.875 2.125 2.875 2 6 C0 8 0 8 -2.8203125 8.1953125 C-3.91085938 8.17210937 -5.00140625 8.14890625 -6.125 8.125 C-7.22070312 8.10695313 -8.31640625 8.08890625 -9.4453125 8.0703125 C-10.28835937 8.04710937 -11.13140625 8.02390625 -12 8 C-12 7.67 -12 7.34 -12 7 C-8.37 7 -4.74 7 -1 7 C-0.67 4.69 -0.34 2.38 0 0 Z " fill="#9F5856" transform="translate(204,38)"/>
<path d="M0 0 C1.6254308 0.14095064 3.25034051 0.28792087 4.875 0.4375 C5.77992188 0.51871094 6.68484375 0.59992188 7.6171875 0.68359375 C10 1 10 1 12 2 C12 2.66 12 3.32 12 4 C12.66 4.33 13.32 4.66 14 5 C8.94744036 4.36843005 4.70406799 2.86540627 0 1 C0 0.67 0 0.34 0 0 Z " fill="#AF3634" transform="translate(204,163)"/>
<path d="M0 0 C6.15234375 -0.09765625 6.15234375 -0.09765625 8 0 C8.33 0.33 8.66 0.66 9 1 C10.67884238 1.3931648 12.36850045 1.74085452 14.0625 2.0625 C14.98160156 2.23910156 15.90070313 2.41570313 16.84765625 2.59765625 C17.55792969 2.73042969 18.26820313 2.86320312 19 3 C15.69130545 4.08506842 13.4384779 3.88446498 10.0625 3.125 C8.81146484 2.85042969 8.81146484 2.85042969 7.53515625 2.5703125 C6.69855469 2.38210937 5.86195313 2.19390625 5 2 C3.33413792 1.6626687 1.66769137 1.32816825 0 1 C0 0.67 0 0.34 0 0 Z " fill="#855856" transform="translate(123,46)"/>
<path d="M0 0 C4.29 0 8.58 0 13 0 C13 0.66 13 1.32 13 2 C13.66 2.33 14.32 2.66 15 3 C4.44191344 2.03644647 4.44191344 2.03644647 0 1 C0 0.67 0 0.34 0 0 Z " fill="#F5C4BB" transform="translate(125,127)"/>
<path d="M0 0 C0.99 0.33 1.98 0.66 3 1 C3.35233161 6.37305699 3.35233161 6.37305699 3 9 C1 11 1 11 -1 12 C-2.32 11.34 -3.64 10.68 -5 10 C-5 9.67 -5 9.34 -5 9 C-3.02 8.67 -1.04 8.34 1 8 C1.20970559 3.85906302 1.20970559 3.85906302 0 0 Z " fill="#D35246" transform="translate(182,56)"/>
<path d="M0 0 C1.9375 0.3125 1.9375 0.3125 4 1 C4.33 1.99 4.66 2.98 5 4 C2.36 4.33 -0.28 4.66 -3 5 C-2.01 3.35 -1.02 1.7 0 0 Z " fill="#FBEBB8" transform="translate(148,217)"/>
<path d="M0 0 C1.91731918 0.11455681 3.8338675 0.24206258 5.75 0.375 C7.35101563 0.47941406 7.35101563 0.47941406 8.984375 0.5859375 C11.80206432 0.9728223 13.5830366 1.55686166 16 3 C12.26706662 3.94666116 9.51408135 3.97074447 5.75 3.1875 C4.87859375 3.01605469 4.0071875 2.84460938 3.109375 2.66796875 C2.41328125 2.44753906 1.7171875 2.22710937 1 2 C0.67 1.34 0.34 0.68 0 0 Z " fill="#992F2B" transform="translate(176,159)"/>
<path d="M0 0 C5.80512153 0.14105903 5.80512153 0.14105903 8.02734375 2.36328125 C1.59234375 2.85828125 1.59234375 2.85828125 -4.97265625 3.36328125 C-1.97265625 0.36328125 -1.97265625 0.36328125 0 0 Z " fill="#9E302A" transform="translate(63.97265625,138.63671875)"/>
<path d="M0 0 C2.01822917 0.06510417 4.03645833 0.13020833 6.0546875 0.1953125 C6.0546875 0.5253125 6.0546875 0.8553125 6.0546875 1.1953125 C3.7446875 1.1953125 1.4346875 1.1953125 -0.9453125 1.1953125 C-1.2753125 3.1753125 -1.6053125 5.1553125 -1.9453125 7.1953125 C-2.6053125 7.1953125 -3.2653125 7.1953125 -3.9453125 7.1953125 C-4.0703125 4.8203125 -4.0703125 4.8203125 -3.9453125 2.1953125 C-1.9453125 0.1953125 -1.9453125 0.1953125 0 0 Z " fill="#625054" transform="translate(113.9453125,44.8046875)"/>
<path d="M0 0 C1.66611905 -0.042721 3.33382885 -0.04063832 5 0 C5.33 0.33 5.66 0.66 6 1 C7.84891946 1.23363881 9.70488031 1.41303635 11.5625 1.5625 C12.57441406 1.64628906 13.58632812 1.73007812 14.62890625 1.81640625 C15.80259766 1.90728516 15.80259766 1.90728516 17 2 C17 2.33 17 2.66 17 3 C14.91731407 3.08126087 12.83371342 3.13930839 10.75 3.1875 C9.00976562 3.23970703 9.00976562 3.23970703 7.234375 3.29296875 C3.77731593 2.97982934 2.48434437 2.34290892 0 0 Z " fill="#6B5657" transform="translate(136,26)"/>
<path d="M0 0 C3.63 0.66 7.26 1.32 11 2 C11 2.99 11 3.98 11 5 C10.01 5 9.02 5 8 5 C7.67 4.34 7.34 3.68 7 3 C4.67843403 2.59270772 2.3431213 2.25561323 0 2 C0 1.34 0 0.68 0 0 Z " fill="#45575A" transform="translate(128,25)"/>
<path d="M0 0 C2.64 0 5.28 0 8 0 C8 0.66 8 1.32 8 2 C9.32 2.33 10.64 2.66 12 3 C4.61538462 3.36923077 4.61538462 3.36923077 1.5 1.5 C1.005 1.005 0.51 0.51 0 0 Z " fill="#C4514D" transform="translate(116,21)"/>
<path d="M0 0 C-0.33 0.99 -0.66 1.98 -1 3 C-2.98 3.33 -4.96 3.66 -7 4 C-7 4.66 -7 5.32 -7 6 C-7.66 6 -8.32 6 -9 6 C-8 3 -8 3 -5.625 1.3125 C-3 0 -3 0 0 0 Z " fill="#DDDBBA" transform="translate(54,212)"/>
<path d="M0 0 C0.56655968 2.18530161 1.05723894 4.33525664 1.4375 6.5625 C1.90385426 9.238632 1.90385426 9.238632 4 12 C1.525 11.01 1.525 11.01 -1 10 C-1.125 2.25 -1.125 2.25 0 0 Z " fill="#4F3A47" transform="translate(49,187)"/>
<path d="M0 0 C0.33 0.99 0.66 1.98 1 3 C-2.96 3 -6.92 3 -11 3 C-11 2.67 -11 2.34 -11 2 C-9.5422647 1.664061 -8.08378894 1.33133376 -6.625 1 C-5.40683594 0.7215625 -5.40683594 0.7215625 -4.1640625 0.4375 C-2 0 -2 0 0 0 Z " fill="#C54F5A" transform="translate(175,29)"/>
<path d="M0 0 C2.64 0.33 5.28 0.66 8 1 C8 1.66 8 2.32 8 3 C5.39417629 3.93065133 4.35801776 4.14917407 1.75 3.0625 C1.1725 2.711875 0.595 2.36125 0 2 C0 1.34 0 0.68 0 0 Z " fill="#D85244" transform="translate(106,124)"/>
<path d="M0 0 C0.33 0 0.66 0 1 0 C1.08333357 4.8333472 0.95261487 9.23692563 0 14 C-0.33 14 -0.66 14 -1 14 C-1.93402724 8.58264203 -2.20808081 5.19548425 0 0 Z " fill="#FBD6C3" transform="translate(191,86)"/>
<path d="M0 0 C1.58246707 -0.08153933 3.16616273 -0.13943557 4.75 -0.1875 C6.07257813 -0.23970703 6.07257813 -0.23970703 7.421875 -0.29296875 C10.44671583 0.05076316 11.75583602 1.00227459 14 3 C12.33388095 3.042721 10.66617115 3.04063832 9 3 C8.67 2.67 8.34 2.34 8 2 C6.65252916 1.76924918 5.29622435 1.58846937 3.9375 1.4375 C2.638125 1.293125 1.33875 1.14875 0 1 C0 0.67 0 0.34 0 0 Z " fill="#645564" transform="translate(126,55)"/>
<path d="M0 0 C3.96 0.33 7.92 0.66 12 1 C12 1.33 12 1.66 12 2 C10.56359829 2.19573608 9.12580496 2.38127816 7.6875 2.5625 C6.88699219 2.66691406 6.08648437 2.77132812 5.26171875 2.87890625 C3 3 3 3 0 2 C0 1.34 0 0.68 0 0 Z " fill="#DE4D4E" transform="translate(162,41)"/>
<path d="M0 0 C0.99 0 1.98 0 3 0 C3 0.66 3 1.32 3 2 C3.99 2.33 4.98 2.66 6 3 C4.02 3.66 2.04 4.32 0 5 C-0.5625 3.0625 -0.5625 3.0625 -1 1 C-0.67 0.67 -0.34 0.34 0 0 Z " fill="#434651" transform="translate(57,154)"/>
<path d="M0 0 C0.33 0 0.66 0 1 0 C1.33 3.63 1.66 7.26 2 11 C1.01 10.67 0.02 10.34 -1 10 C-0.67 6.7 -0.34 3.4 0 0 Z " fill="#1B2A30" transform="translate(41,222)"/>
<path d="M0 0 C0 0.66 0 1.32 0 2 C-3.375 2.625 -3.375 2.625 -7 3 C-7.66 2.34 -8.32 1.68 -9 1 C-5.846632 0.29925156 -3.27275026 0 0 0 Z " fill="#F7D7B1" transform="translate(143,194)"/>
<path d="M0 0 C2.64 0 5.28 0 8 0 C5.23776722 2.76223278 2.79293383 2.57856291 -1 3 C-0.67 2.01 -0.34 1.02 0 0 Z " fill="#D55143" transform="translate(152,133)"/>
<path d="M0 0 C0 0.33 0 0.66 0 1 C-3.63 1.33 -7.26 1.66 -11 2 C-11 1.67 -11 1.34 -11 1 C-7.26562152 0.12132271 -3.83225427 -0.08912219 0 0 Z " fill="#2E3D48" transform="translate(94,252)"/>
<path d="M0 0 C0 0.33 0 0.66 0 1 C-3.63 1.33 -7.26 1.66 -11 2 C-11 1.67 -11 1.34 -11 1 C-7.26562152 0.12132271 -3.83225427 -0.08912219 0 0 Z " fill="#2D3C4E" transform="translate(111,249)"/>
<path d="M0 0 C0 0.33 0 0.66 0 1 C-3.63 1.33 -7.26 1.66 -11 2 C-11 1.67 -11 1.34 -11 1 C-7.26562152 0.12132271 -3.83225427 -0.08912219 0 0 Z " fill="#2F3C4C" transform="translate(128,246)"/>
<path d="M0 0 C0 0.33 0 0.66 0 1 C-3.63 1.33 -7.26 1.66 -11 2 C-11 1.67 -11 1.34 -11 1 C-7.26562152 0.12132271 -3.83225427 -0.08912219 0 0 Z " fill="#2C3D4B" transform="translate(162,240)"/>
<path d="M0 0 C0 0.33 0 0.66 0 1 C-3.63 1.33 -7.26 1.66 -11 2 C-11 1.67 -11 1.34 -11 1 C-7.26562152 0.12132271 -3.83225427 -0.08912219 0 0 Z " fill="#2D3D4D" transform="translate(179,237)"/>
<path d="M0 0 C0.33 0 0.66 0 1 0 C1.33 3.63 1.66 7.26 2 11 C1.67 11 1.34 11 1 11 C0.67 7.37 0.34 3.74 0 0 Z " fill="#38485C" transform="translate(1,106)"/>
<path d="M0 0 C0.33 0 0.66 0 1 0 C1 1.98 1 3.96 1 6 C-0.98 6 -2.96 6 -5 6 C-5 5.67 -5 5.34 -5 5 C-3.35 5 -1.7 5 0 5 C0 3.35 0 1.7 0 0 Z " fill="#7E4A4B" transform="translate(72,40)"/>
<path d="M0 0 C1.98 0 3.96 0 6 0 C6 0.33 6 0.66 6 1 C4.02 1 2.04 1 0 1 C0 0.67 0 0.34 0 0 Z " fill="#2A3D50" transform="translate(71,255)"/>
<path d="M0 0 C1.98 0 3.96 0 6 0 C6 0.33 6 0.66 6 1 C4.02 1 2.04 1 0 1 C0 0.67 0 0.34 0 0 Z " fill="#293E4E" transform="translate(77,254)"/>
<path d="M0 0 C1.98 0 3.96 0 6 0 C6 0.33 6 0.66 6 1 C4.02 1 2.04 1 0 1 C0 0.67 0 0.34 0 0 Z " fill="#2C3D4C" transform="translate(94,251)"/>
<path d="M0 0 C1.98 0 3.96 0 6 0 C6 0.33 6 0.66 6 1 C4.02 1 2.04 1 0 1 C0 0.67 0 0.34 0 0 Z " fill="#333A4B" transform="translate(111,248)"/>
<path d="M0 0 C1.98 0 3.96 0 6 0 C6 0.33 6 0.66 6 1 C4.02 1 2.04 1 0 1 C0 0.67 0 0.34 0 0 Z " fill="#313C48" transform="translate(128,245)"/>
<path d="M0 0 C1.98 0 3.96 0 6 0 C6 0.33 6 0.66 6 1 C4.02 1 2.04 1 0 1 C0 0.67 0 0.34 0 0 Z " fill="#2F3C4A" transform="translate(139,243)"/>
<path d="M0 0 C1.98 0 3.96 0 6 0 C6 0.33 6 0.66 6 1 C4.02 1 2.04 1 0 1 C0 0.67 0 0.34 0 0 Z " fill="#2C3E4B" transform="translate(145,242)"/>
<path d="M0 0 C1.98 0 3.96 0 6 0 C6 0.33 6 0.66 6 1 C4.02 1 2.04 1 0 1 C0 0.67 0 0.34 0 0 Z " fill="#313C4A" transform="translate(162,239)"/>
<path d="M0 0 C1.98 0 3.96 0 6 0 C6 0.33 6 0.66 6 1 C4.02 1 2.04 1 0 1 C0 0.67 0 0.34 0 0 Z " fill="#2D3C51" transform="translate(179,236)"/>
<path d="M0 0 C1.98 0 3.96 0 6 0 C6 0.33 6 0.66 6 1 C4.02 1 2.04 1 0 1 C0 0.67 0 0.34 0 0 Z " fill="#2E3D4A" transform="translate(190,234)"/>
<path d="M0 0 C0.33 0 0.66 0 1 0 C1 1.98 1 3.96 1 6 C0.67 6 0.34 6 0 6 C0 4.02 0 2.04 0 0 Z " fill="#313E4E" transform="translate(22,225)"/>
<path d="M0 0 C0.99 0.33 1.98 0.66 3 1 C1.02 1.99 1.02 1.99 -1 3 C-0.67 2.01 -0.34 1.02 0 0 Z " fill="#523940" transform="translate(209,225)"/>
<path d="M0 0 C0.33 0 0.66 0 1 0 C1 1.98 1 3.96 1 6 C0.67 6 0.34 6 0 6 C0 4.02 0 2.04 0 0 Z " fill="#3B455E" transform="translate(21,219)"/>
<path d="M0 0 C0.33 0 0.66 0 1 0 C1 1.98 1 3.96 1 6 C0.67 6 0.34 6 0 6 C0 4.02 0 2.04 0 0 Z " fill="#3B465D" transform="translate(19,208)"/>
<path d="M0 0 C0.33 0 0.66 0 1 0 C1 1.98 1 3.96 1 6 C0.67 6 0.34 6 0 6 C0 4.02 0 2.04 0 0 Z " fill="#3A4852" transform="translate(18,202)"/>
<path d="M0 0 C0.33 0 0.66 0 1 0 C1 1.98 1 3.96 1 6 C0.67 6 0.34 6 0 6 C0 4.02 0 2.04 0 0 Z " fill="#384859" transform="translate(16,191)"/>
<path d="M0 0 C0.33 0 0.66 0 1 0 C1 1.98 1 3.96 1 6 C0.67 6 0.34 6 0 6 C0 4.02 0 2.04 0 0 Z " fill="#CB3C27" transform="translate(234,190)"/>
<path d="M0 0 C0.33 0 0.66 0 1 0 C1 1.98 1 3.96 1 6 C0.67 6 0.34 6 0 6 C0 4.02 0 2.04 0 0 Z " fill="#344A5F" transform="translate(15,185)"/>
<path d="M0 0 C0.33 0 0.66 0 1 0 C1 1.98 1 3.96 1 6 C0.67 6 0.34 6 0 6 C0 4.02 0 2.04 0 0 Z " fill="#C43C2B" transform="translate(236,179)"/>
<path d="M0 0 C0.33 0 0.66 0 1 0 C1 1.98 1 3.96 1 6 C0.67 6 0.34 6 0 6 C0 4.02 0 2.04 0 0 Z " fill="#3A4759" transform="translate(13,174)"/>
<path d="M0 0 C0.33 0 0.66 0 1 0 C1 1.98 1 3.96 1 6 C0.67 6 0.34 6 0 6 C0 4.02 0 2.04 0 0 Z " fill="#AD4032" transform="translate(237,173)"/>
<path d="M0 0 C0.33 0 0.66 0 1 0 C1 1.98 1 3.96 1 6 C0.67 6 0.34 6 0 6 C0 4.02 0 2.04 0 0 Z " fill="#3A4758" transform="translate(12,168)"/>
<path d="M0 0 C0.33 0 0.66 0 1 0 C1 1.98 1 3.96 1 6 C0.67 6 0.34 6 0 6 C0 4.02 0 2.04 0 0 Z " fill="#AD4642" transform="translate(239,162)"/>
<path d="M0 0 C0.33 0 0.66 0 1 0 C1 1.98 1 3.96 1 6 C0.67 6 0.34 6 0 6 C0 4.02 0 2.04 0 0 Z " fill="#38485B" transform="translate(10,157)"/>
<path d="M0 0 C0.33 0 0.66 0 1 0 C1 1.98 1 3.96 1 6 C0.67 6 0.34 6 0 6 C0 4.02 0 2.04 0 0 Z " fill="#BF3D33" transform="translate(240,156)"/>
<path d="M0 0 C0.33 0 0.66 0 1 0 C1 1.98 1 3.96 1 6 C0.67 6 0.34 6 0 6 C0 4.02 0 2.04 0 0 Z " fill="#38495C" transform="translate(9,151)"/>
<path d="M0 0 C0.33 0 0.66 0 1 0 C1 1.98 1 3.96 1 6 C0.67 6 0.34 6 0 6 C0 4.02 0 2.04 0 0 Z " fill="#C73830" transform="translate(242,145)"/>
<path d="M0 0 C0.33 0 0.66 0 1 0 C1 1.98 1 3.96 1 6 C0.67 6 0.34 6 0 6 C0 4.02 0 2.04 0 0 Z " fill="#B13A35" transform="translate(243,139)"/>
<path d="M0 0 C0.33 0 0.66 0 1 0 C1 1.98 1 3.96 1 6 C0.67 6 0.34 6 0 6 C0 4.02 0 2.04 0 0 Z " fill="#3A4755" transform="translate(7,140)"/>
<path d="M0 0 C0.33 0 0.66 0 1 0 C1 1.98 1 3.96 1 6 C0.67 6 0.34 6 0 6 C0 4.02 0 2.04 0 0 Z " fill="#394757" transform="translate(6,134)"/>
<path d="M0 0 C0.33 0 0.66 0 1 0 C1 1.98 1 3.96 1 6 C0.67 6 0.34 6 0 6 C0 4.02 0 2.04 0 0 Z " fill="#AF443B" transform="translate(245,128)"/>
<path d="M0 0 C0.33 0 0.66 0 1 0 C1 1.98 1 3.96 1 6 C0.67 6 0.34 6 0 6 C0 4.02 0 2.04 0 0 Z " fill="#39485C" transform="translate(4,123)"/>
<path d="M0 0 C0.33 0 0.66 0 1 0 C1 1.98 1 3.96 1 6 C0.67 6 0.34 6 0 6 C0 4.02 0 2.04 0 0 Z " fill="#BD3741" transform="translate(246,122)"/>
<path d="M0 0 C0.33 0 0.66 0 1 0 C1 1.98 1 3.96 1 6 C0.67 6 0.34 6 0 6 C0 4.02 0 2.04 0 0 Z " fill="#38475F" transform="translate(3,117)"/>
<path d="M0 0 C0.33 0 0.66 0 1 0 C1 1.98 1 3.96 1 6 C0.67 6 0.34 6 0 6 C0 4.02 0 2.04 0 0 Z " fill="#C03E33" transform="translate(248,111)"/>
<path d="M0 0 C0.33 0 0.66 0 1 0 C1 1.98 1 3.96 1 6 C0.67 6 0.34 6 0 6 C0 4.02 0 2.04 0 0 Z " fill="#AC3F33" transform="translate(249,105)"/>
<path d="M0 0 C0.33 0 0.66 0 1 0 C1 1.98 1 3.96 1 6 C0.67 6 0.34 6 0 6 C0 4.02 0 2.04 0 0 Z " fill="#36495E" transform="translate(0,100)"/>
<path d="M0 0 C0.33 0 0.66 0 1 0 C1 1.98 1 3.96 1 6 C0.67 6 0.34 6 0 6 C0 4.02 0 2.04 0 0 Z " fill="#AF4632" transform="translate(251,94)"/>
<path d="M0 0 C0.33 0 0.66 0 1 0 C1 1.98 1 3.96 1 6 C0.67 6 0.34 6 0 6 C0 4.02 0 2.04 0 0 Z " fill="#C53939" transform="translate(252,88)"/>
<path d="M0 0 C0.33 0 0.66 0 1 0 C1 1.98 1 3.96 1 6 C0.67 6 0.34 6 0 6 C0 4.02 0 2.04 0 0 Z " fill="#C73C2B" transform="translate(254,77)"/>
<path d="M0 0 C0.33 0 0.66 0 1 0 C1 1.98 1 3.96 1 6 C0.67 6 0.34 6 0 6 C0 4.02 0 2.04 0 0 Z " fill="#C13B2B" transform="translate(255,71)"/>
<path d="M0 0 C1.98 0 3.96 0 6 0 C6 0.33 6 0.66 6 1 C4.02 1 2.04 1 0 1 C0 0.67 0 0.34 0 0 Z " fill="#374857" transform="translate(27,52)"/>
<path d="M0 0 C1.98 0 3.96 0 6 0 C6 0.33 6 0.66 6 1 C4.02 1 2.04 1 0 1 C0 0.67 0 0.34 0 0 Z " fill="#36495F" transform="translate(33,51)"/>
<path d="M0 0 C1.98 0 3.96 0 6 0 C6 0.33 6 0.66 6 1 C4.02 1 2.04 1 0 1 C0 0.67 0 0.34 0 0 Z " fill="#36495C" transform="translate(44,49)"/>
<path d="M0 0 C1.98 0 3.96 0 6 0 C6 0.33 6 0.66 6 1 C4.02 1 2.04 1 0 1 C0 0.67 0 0.34 0 0 Z " fill="#3A4859" transform="translate(50,48)"/>
<path d="M0 0 C1.98 0 3.96 0 6 0 C6 0.33 6 0.66 6 1 C4.02 1 2.04 1 0 1 C0 0.67 0 0.34 0 0 Z " fill="#364858" transform="translate(61,46)"/>
<path d="M0 0 C0.33 0 0.66 0 1 0 C1 1.98 1 3.96 1 6 C0.67 6 0.34 6 0 6 C0 4.02 0 2.04 0 0 Z " fill="#D25249" transform="translate(74,29)"/>
<path d="M0 0 C0.33 0 0.66 0 1 0 C1 1.98 1 3.96 1 6 C0.67 6 0.34 6 0 6 C0 4.02 0 2.04 0 0 Z " fill="#E24C40" transform="translate(75,23)"/>
<path d="M0 0 C1.98 0 3.96 0 6 0 C6 0.33 6 0.66 6 1 C4.02 1 2.04 1 0 1 C0 0.67 0 0.34 0 0 Z " fill="#D5473B" transform="translate(223,21)"/>
<path d="M0 0 C1.98 0 3.96 0 6 0 C6 0.33 6 0.66 6 1 C4.02 1 2.04 1 0 1 C0 0.67 0 0.34 0 0 Z " fill="#D1534B" transform="translate(217,20)"/>
<path d="M0 0 C1.98 0 3.96 0 6 0 C6 0.33 6 0.66 6 1 C4.02 1 2.04 1 0 1 C0 0.67 0 0.34 0 0 Z " fill="#E44B3D" transform="translate(211,19)"/>
<path d="M0 0 C1.98 0 3.96 0 6 0 C6 0.33 6 0.66 6 1 C4.02 1 2.04 1 0 1 C0 0.67 0 0.34 0 0 Z " fill="#E4494B" transform="translate(200,17)"/>
<path d="M0 0 C1.98 0 3.96 0 6 0 C6 0.33 6 0.66 6 1 C4.02 1 2.04 1 0 1 C0 0.67 0 0.34 0 0 Z " fill="#C85650" transform="translate(194,16)"/>
<path d="M0 0 C0.33 0 0.66 0 1 0 C1 1.98 1 3.96 1 6 C0.67 6 0.34 6 0 6 C0 4.02 0 2.04 0 0 Z " fill="#EA483F" transform="translate(77,12)"/>
<path d="M0 0 C1.98 0 3.96 0 6 0 C6 0.33 6 0.66 6 1 C4.02 1 2.04 1 0 1 C0 0.67 0 0.34 0 0 Z " fill="#CB5649" transform="translate(183,14)"/>
<path d="M0 0 C1.98 0 3.96 0 6 0 C6 0.33 6 0.66 6 1 C4.02 1 2.04 1 0 1 C0 0.67 0 0.34 0 0 Z " fill="#E84845" transform="translate(177,13)"/>
<path d="M0 0 C1.98 0 3.96 0 6 0 C6 0.33 6 0.66 6 1 C4.02 1 2.04 1 0 1 C0 0.67 0 0.34 0 0 Z " fill="#E84B38" transform="translate(166,11)"/>
<path d="M0 0 C1.98 0 3.96 0 6 0 C6 0.33 6 0.66 6 1 C4.02 1 2.04 1 0 1 C0 0.67 0 0.34 0 0 Z " fill="#C95847" transform="translate(160,10)"/>
<path d="M0 0 C1.98 0 3.96 0 6 0 C6 0.33 6 0.66 6 1 C4.02 1 2.04 1 0 1 C0 0.67 0 0.34 0 0 Z " fill="#D05448" transform="translate(149,8)"/>
<path d="M0 0 C1.98 0 3.96 0 6 0 C6 0.33 6 0.66 6 1 C4.02 1 2.04 1 0 1 C0 0.67 0 0.34 0 0 Z " fill="#E14D3E" transform="translate(143,7)"/>
<path d="M0 0 C1.98 0 3.96 0 6 0 C6 0.33 6 0.66 6 1 C4.02 1 2.04 1 0 1 C0 0.67 0 0.34 0 0 Z " fill="#DE4F3D" transform="translate(132,5)"/>
<path d="M0 0 C1.98 0 3.96 0 6 0 C6 0.33 6 0.66 6 1 C4.02 1 2.04 1 0 1 C0 0.67 0 0.34 0 0 Z " fill="#CC554A" transform="translate(126,4)"/>
<path d="M0 0 C1.98 0 3.96 0 6 0 C6 0.33 6 0.66 6 1 C4.02 1 2.04 1 0 1 C0 0.67 0 0.34 0 0 Z " fill="#CE544A" transform="translate(115,2)"/>
<path d="M0 0 C1.98 0 3.96 0 6 0 C6 0.33 6 0.66 6 1 C4.02 1 2.04 1 0 1 C0 0.67 0 0.34 0 0 Z " fill="#E24D39" transform="translate(109,1)"/>
<path d="M0 0 C1.65 0 3.3 0 5 0 C5 0.33 5 0.66 5 1 C3.35 1 1.7 1 0 1 C0 0.67 0 0.34 0 0 Z " fill="#2F3C4B" transform="translate(134,244)"/>
<path d="M0 0 C1.65 0 3.3 0 5 0 C5 0.33 5 0.66 5 1 C3.35 1 1.7 1 0 1 C0 0.67 0 0.34 0 0 Z " fill="#2F3C49" transform="translate(185,235)"/>
<path d="M0 0 C1.65 0 3.3 0 5 0 C5 0.33 5 0.66 5 1 C3.35 1 1.7 1 0 1 C0 0.67 0 0.34 0 0 Z " fill="#2F3C49" transform="translate(196,233)"/>
<path d="M0 0 C0.33 0 0.66 0 1 0 C1 1.65 1 3.3 1 5 C0.67 5 0.34 5 0 5 C0 3.35 0 1.7 0 0 Z " fill="#3C465D" transform="translate(20,214)"/>
<path d="M0 0 C0.33 0 0.66 0 1 0 C1 1.65 1 3.3 1 5 C0.67 5 0.34 5 0 5 C0 3.35 0 1.7 0 0 Z " fill="#803534" transform="translate(233,196)"/>
<path d="M0 0 C0.33 0 0.66 0 1 0 C1 1.65 1 3.3 1 5 C0.67 5 0.34 5 0 5 C0 3.35 0 1.7 0 0 Z " fill="#384958" transform="translate(17,197)"/>
<path d="M0 0 C0.33 0 0.66 0 1 0 C1 1.65 1 3.3 1 5 C0.67 5 0.34 5 0 5 C0 3.35 0 1.7 0 0 Z " fill="#AF4331" transform="translate(235,185)"/>
<path d="M0 0 C0.33 0 0.66 0 1 0 C1 1.65 1 3.3 1 5 C0.67 5 0.34 5 0 5 C0 3.35 0 1.7 0 0 Z " fill="#3A475B" transform="translate(14,180)"/>
<path d="M0 0 C0.33 0 0.66 0 1 0 C1 1.65 1 3.3 1 5 C0.67 5 0.34 5 0 5 C0 3.35 0 1.7 0 0 Z " fill="#C43C35" transform="translate(238,168)"/>
<path d="M0 0 C0.33 0 0.66 0 1 0 C1 1.65 1 3.3 1 5 C0.67 5 0.34 5 0 5 C0 3.35 0 1.7 0 0 Z " fill="#334A60" transform="translate(11,163)"/>
<path d="M0 0 C0.33 0 0.66 0 1 0 C1 1.65 1 3.3 1 5 C0.67 5 0.34 5 0 5 C0 3.35 0 1.7 0 0 Z " fill="#B0422F" transform="translate(241,151)"/>
<path d="M0 0 C0.33 0 0.66 0 1 0 C1 1.65 1 3.3 1 5 C0.67 5 0.34 5 0 5 C0 3.35 0 1.7 0 0 Z " fill="#3B4856" transform="translate(8,146)"/>
<path d="M0 0 C0.33 0 0.66 0 1 0 C1 1.65 1 3.3 1 5 C0.67 5 0.34 5 0 5 C0 3.35 0 1.7 0 0 Z " fill="#C53C27" transform="translate(244,134)"/>
<path d="M0 0 C0.33 0 0.66 0 1 0 C1 1.65 1 3.3 1 5 C0.67 5 0.34 5 0 5 C0 3.35 0 1.7 0 0 Z " fill="#384757" transform="translate(5,129)"/>
<path d="M0 0 C0.33 0 0.66 0 1 0 C1 1.65 1 3.3 1 5 C0.67 5 0.34 5 0 5 C0 3.35 0 1.7 0 0 Z " fill="#AF433B" transform="translate(247,117)"/>
<path d="M0 0 C0.33 0 0.66 0 1 0 C1 1.65 1 3.3 1 5 C0.67 5 0.34 5 0 5 C0 3.35 0 1.7 0 0 Z " fill="#CB3D2E" transform="translate(250,100)"/>
<path d="M0 0 C0.33 0 0.66 0 1 0 C1 1.65 1 3.3 1 5 C0.67 5 0.34 5 0 5 C0 3.35 0 1.7 0 0 Z " fill="#B5403B" transform="translate(253,83)"/>
<path d="M0 0 C1.65 0 3.3 0 5 0 C5 0.33 5 0.66 5 1 C3.35 1 1.7 1 0 1 C0 0.67 0 0.34 0 0 Z " fill="#37495A" transform="translate(39,50)"/>
<path d="M0 0 C1.65 0 3.3 0 5 0 C5 0.33 5 0.66 5 1 C3.35 1 1.7 1 0 1 C0 0.67 0 0.34 0 0 Z " fill="#33485D" transform="translate(56,47)"/>
<path d="M0 0 C0.33 0 0.66 0 1 0 C1 1.65 1 3.3 1 5 C0.67 5 0.34 5 0 5 C0 3.35 0 1.7 0 0 Z " fill="#DC4C45" transform="translate(73,35)"/>
<path d="M0 0 C0.33 0 0.66 0 1 0 C1 1.65 1 3.3 1 5 C0.67 5 0.34 5 0 5 C0 3.35 0 1.7 0 0 Z " fill="#D1534A" transform="translate(76,18)"/>
<path d="M0 0 C1.65 0 3.3 0 5 0 C5 0.33 5 0.66 5 1 C3.35 1 1.7 1 0 1 C0 0.67 0 0.34 0 0 Z " fill="#CE5549" transform="translate(206,18)"/>
<path d="M0 0 C1.65 0 3.3 0 5 0 C5 0.33 5 0.66 5 1 C3.35 1 1.7 1 0 1 C0 0.67 0 0.34 0 0 Z " fill="#DC4F3F" transform="translate(189,15)"/>
<path d="M0 0 C1.65 0 3.3 0 5 0 C5 0.33 5 0.66 5 1 C3.35 1 1.7 1 0 1 C0 0.67 0 0.34 0 0 Z " fill="#C9564D" transform="translate(172,12)"/>
<path d="M0 0 C0.33 0 0.66 0 1 0 C1 1.65 1 3.3 1 5 C0.67 5 0.34 5 0 5 C0 3.35 0 1.7 0 0 Z " fill="#D05349" transform="translate(78,7)"/>
<path d="M0 0 C1.65 0 3.3 0 5 0 C5 0.33 5 0.66 5 1 C3.35 1 1.7 1 0 1 C0 0.67 0 0.34 0 0 Z " fill="#E1494F" transform="translate(155,9)"/>
<path d="M0 0 C1.65 0 3.3 0 5 0 C5 0.33 5 0.66 5 1 C3.35 1 1.7 1 0 1 C0 0.67 0 0.34 0 0 Z " fill="#CE5642" transform="translate(138,6)"/>
<path d="M0 0 C1.65 0 3.3 0 5 0 C5 0.33 5 0.66 5 1 C3.35 1 1.7 1 0 1 C0 0.67 0 0.34 0 0 Z " fill="#E24C43" transform="translate(121,3)"/>
<path d="M0 0 C1.65 0 3.3 0 5 0 C5 0.33 5 0.66 5 1 C3.35 1 1.7 1 0 1 C0 0.67 0 0.34 0 0 Z " fill="#E44C3B" transform="translate(104,0)"/>
<path d="M0 0 C0.99 0.33 1.98 0.66 3 1 C2.01 1 1.02 1 0 1 C0 0.67 0 0.34 0 0 Z " fill="#2C3B4D" transform="translate(33,249)"/>
<path d="M0 0 C0.99 0.495 0.99 0.495 2 1 C1.67 1.66 1.34 2.32 1 3 C0.67 2.01 0.34 1.02 0 0 Z " fill="#293D4D" transform="translate(30,245)"/>
<path d="M0 0 C1 4 1 4 1 4 Z " fill="#343E46" transform="translate(23,231)"/>
<path d="M0 0 C0 3 0 3 0 3 Z " fill="#38485B" transform="translate(6,64)"/>
<path d="M0 0 C4 1 4 1 4 1 Z " fill="#374759" transform="translate(23,53)"/>
<path d="M0 0 C4 1 4 1 4 1 Z " fill="#AF4131" transform="translate(229,22)"/>
<path d="M0 0 C3 1 3 1 3 1 Z " fill="#763136" transform="translate(212,224)"/>
<path d="" fill="#6E373C" transform="translate(0,0)"/>
<path d="" fill="#78333F" transform="translate(0,0)"/>
<path d="" fill="#344A5C" transform="translate(0,0)"/>
<path d="M0 0 C3 1 3 1 3 1 Z " fill="#3D4557" transform="translate(20,54)"/>
<path d="M0 0 C3 1 3 1 3 1 Z " fill="#BB3F2B" transform="translate(233,23)"/>
<path d="" fill="#E14D40" transform="translate(0,0)"/>
<path d="M0 0 C2 1 2 1 2 1 Z " fill="#2A3F4C" transform="translate(42,255)"/>
<path d="M0 0 C2 1 2 1 2 1 Z " fill="#2C3E4A" transform="translate(40,254)"/>
<path d="M0 0 C2 1 2 1 2 1 Z " fill="#373A42" transform="translate(38,253)"/>
<path d="" fill="#313B43" transform="translate(0,0)"/>
<path d="" fill="#303B46" transform="translate(0,0)"/>
<path d="" fill="#2C3E4E" transform="translate(0,0)"/>
<path d="" fill="#33404E" transform="translate(0,0)"/>
<path d="M0 0 C2 1 2 1 2 1 Z " fill="#373B3E" transform="translate(201,232)"/>
<path d="M0 0 C2 1 2 1 2 1 Z " fill="#383A3F" transform="translate(203,231)"/>
<path d="M0 0 C2 1 2 1 2 1 Z " fill="#7A3233" transform="translate(216,222)"/>
<path d="M0 0 C2 1 2 1 2 1 Z " fill="#802E3A" transform="translate(219,220)"/>
<path d="" fill="#6B3835" transform="translate(0,0)"/>
<path d="" fill="#78303B" transform="translate(0,0)"/>
<path d="" fill="#7B2F3C" transform="translate(0,0)"/>
<path d="" fill="#344A5F" transform="translate(0,0)"/>
<path d="" fill="#3A485A" transform="translate(0,0)"/>
<path d="M0 0 C2 1 2 1 2 1 Z " fill="#3B4856" transform="translate(10,60)"/>
<path d="M0 0 C2 1 2 1 2 1 Z " fill="#41445A" transform="translate(14,57)"/>
<path d="M0 0 C2 1 2 1 2 1 Z " fill="#36475C" transform="translate(16,56)"/>
<path d="M0 0 C2 1 2 1 2 1 Z " fill="#3A465B" transform="translate(18,55)"/>
<path d="" fill="#C33E28" transform="translate(0,0)"/>
<path d="" fill="#B9412E" transform="translate(0,0)"/>
<path d="" fill="#A74642" transform="translate(0,0)"/>
<path d="" fill="#BC3D40" transform="translate(0,0)"/>
<path d="M0 0 C2 1 2 1 2 1 Z " fill="#BB3C42" transform="translate(243,28)"/>
<path d="M0 0 C2 1 2 1 2 1 Z " fill="#A74643" transform="translate(240,26)"/>
<path d="M0 0 C2 1 2 1 2 1 Z " fill="#B93D39" transform="translate(238,25)"/>
<path d="M0 0 C2 1 2 1 2 1 Z " fill="#AD4438" transform="translate(236,24)"/>
<path d="" fill="#353B44" transform="translate(0,0)"/>
<path d="" fill="#323C48" transform="translate(0,0)"/>
<path d="" fill="#2C3C4D" transform="translate(0,0)"/>
<path d="" fill="#2B3D4B" transform="translate(0,0)"/>
<path d="" fill="#2E3C49" transform="translate(0,0)"/>
<path d="" fill="#383B43" transform="translate(0,0)"/>
<path d="" fill="#363D4B" transform="translate(0,0)"/>
<path d="" fill="#373E4E" transform="translate(0,0)"/>
<path d="" fill="#793233" transform="translate(0,0)"/>
<path d="" fill="#753536" transform="translate(0,0)"/>
<path d="" fill="#822E3A" transform="translate(0,0)"/>
<path d="" fill="#822E36" transform="translate(0,0)"/>
<path d="" fill="#7D3038" transform="translate(0,0)"/>
<path d="" fill="#7A2F3D" transform="translate(0,0)"/>
<path d="" fill="#773235" transform="translate(0,0)"/>
<path d="" fill="#7A3131" transform="translate(0,0)"/>
<path d="" fill="#6D3737" transform="translate(0,0)"/>
<path d="" fill="#36495E" transform="translate(0,0)"/>
<path d="" fill="#3B4858" transform="translate(0,0)"/>
<path d="" fill="#3E4850" transform="translate(0,0)"/>
<path d="" fill="#394A52" transform="translate(0,0)"/>
<path d="" fill="#384A54" transform="translate(0,0)"/>
<path d="" fill="#3E4658" transform="translate(0,0)"/>
<path d="" fill="#414558" transform="translate(0,0)"/>
<path d="" fill="#C33B37" transform="translate(0,0)"/>
<path d="" fill="#B3423B" transform="translate(0,0)"/>
<path d="" fill="#AE4433" transform="translate(0,0)"/>
<path d="" fill="#AE4433" transform="translate(0,0)"/>
<path d="" fill="#B04537" transform="translate(0,0)"/>
<path d="" fill="#B04537" transform="translate(0,0)"/>
<path d="" fill="#B3423D" transform="translate(0,0)"/>
<path d="" fill="#C13B39" transform="translate(0,0)"/>
<path d="" fill="#D15250" transform="translate(0,0)"/>
<path d="" fill="#D84E56" transform="translate(0,0)"/>
<path d="" fill="#D15158" transform="translate(0,0)"/>
<path d="" fill="#E04C4A" transform="translate(0,0)"/>
</svg>
