<?xml version="1.0" encoding="UTF-8"?>
<svg version="1.1" xmlns="http://www.w3.org/2000/svg" width="607" height="78">
<path d="M0 0 C11.55 0 23.1 0 35 0 C35 2.31 35 4.62 35 7 C64.04 7 93.08 7 123 7 C123 4.69 123 2.38 123 0 C129.27 0 135.54 0 142 0 C142 2.31 142 4.62 142 7 C145.96 7 149.92 7 154 7 C154 4.69 154 2.38 154 0 C165.55 0 177.1 0 189 0 C189 2.31 189 4.62 189 7 C198.57 7 208.14 7 218 7 C218 16.57 218 26.14 218 36 C208.87516362 36.20326058 199.75053113 36.39591801 190.625 36.5625 C189.92820129 36.57523327 189.23140259 36.58796654 188.51348877 36.60108566 C163.33400248 37.05316069 138.1798048 36.95154139 113 36.5625 C112.16990669 36.54968616 111.33981339 36.53687233 110.48456573 36.5236702 C100.32274278 36.36533335 90.16126495 36.19092133 80 36 C80 38.31 80 40.62 80 43 C73.4 43 66.8 43 60 43 C60 40.69 60 38.38 60 36 C59.10619629 36.03029297 58.21239258 36.06058594 57.29150391 36.09179688 C38.18172116 36.72772974 19.12349101 37.10990512 0 37 C0 24.79 0 12.58 0 0 Z M4 4 C4 13.57 4 23.14 4 33 C7.96 33 11.92 33 16 33 C16.12375 31.535625 16.2475 30.07125 16.375 28.5625 C16.5859375 26.06640625 16.5859375 26.06640625 17 24 C17.66 23.67 18.32 23.34 19 23 C18.95117188 26.02734375 18.95117188 26.02734375 18.90234375 29.0546875 C18.87350758 31.08185404 18.87350758 31.08185404 20 33 C23.63 33 27.26 33 31 33 C31 29.37 31 25.74 31 22 C29.02 21.67 27.04 21.34 25 21 C25 20.34 25 19.68 25 19 C26.98 18.67 28.96 18.34 31 18 C31.10867302 16.41820385 31.18589827 14.83422847 31.25 13.25 C31.31960937 11.92742188 31.31960937 11.92742188 31.390625 10.578125 C30.86949147 7.13864367 29.68295781 6.15995084 27 4 C24.39977877 3.45325201 24.39977877 3.45325201 21.578125 3.609375 C20.65418945 3.61936523 19.73025391 3.62935547 18.77832031 3.63964844 C17.61397461 3.67606445 16.44962891 3.71248047 15.25 3.75 C11.5375 3.8325 7.825 3.915 4 4 Z M127 4 C127 13.57 127 23.14 127 33 C130.7125 33.0825 134.425 33.165 138.25 33.25 C139.4143457 33.28641602 140.57869141 33.32283203 141.77832031 33.36035156 C142.70225586 33.3703418 143.62619141 33.38033203 144.578125 33.390625 C145.52075195 33.41157227 146.46337891 33.43251953 147.43457031 33.45410156 C150.78887681 32.8603625 151.94291209 31.66650761 154 29 C154.63434332 25.40977822 154.63434332 25.40977822 154.5 21.5 C154.5103125 20.1903125 154.520625 18.880625 154.53125 17.53125 C154.26157363 14.00253544 154.26157363 14.00253544 152.328125 11.546875 C149.41108364 9.60870658 147.72027429 9.58474884 144.25 9.75 C142.77273437 9.80414063 142.77273437 9.80414063 141.265625 9.859375 C140.51796875 9.90578125 139.7703125 9.9521875 139 10 C139 8.02 139 6.04 139 4 C135.04 4 131.08 4 127 4 Z M158 4 C157.91916373 8.08372883 157.85957294 12.16586209 157.8125 16.25 C157.78736328 17.40886719 157.76222656 18.56773438 157.73632812 19.76171875 C157.72666016 20.87675781 157.71699219 21.99179687 157.70703125 23.140625 C157.6913208 24.16704102 157.67561035 25.19345703 157.65942383 26.25097656 C158.07339853 29.59244979 158.34524228 30.87822302 161 33 C163.97 33 166.94 33 170 33 C170 23.43 170 13.86 170 4 C166.04 4 162.08 4 158 4 Z M174 4 C174 4.99 174 5.98 174 7 C177.63 7 181.26 7 185 7 C185 6.01 185 5.02 185 4 C181.37 4 177.74 4 174 4 Z M36.5 11.5625 C34.40725106 14.96321703 34.46874351 17.53042614 34.5 21.5 C34.4896875 22.8096875 34.479375 24.119375 34.46875 25.46875 C34.78106477 28.94165006 34.78106477 28.94165006 36.359375 31.453125 C40.62346614 33.95102454 44.91340803 33.41744526 49.75 33.25 C50.73355469 33.23195313 51.71710938 33.21390625 52.73046875 33.1953125 C55.15463783 33.14824126 57.57682059 33.08250742 60 33 C60 30.69 60 28.38 60 26 C56.04 26.33 52.08 26.66 48 27 C47.67 26.01 47.34 25.02 47 24 C47.85464844 24.01160156 48.70929688 24.02320313 49.58984375 24.03515625 C51.24693359 24.04869141 51.24693359 24.04869141 52.9375 24.0625 C54.59072266 24.07990234 54.59072266 24.07990234 56.27734375 24.09765625 C58.91447634 24.31262571 58.91447634 24.31262571 60 23 C60.27709927 21.00250681 60.27709927 21.00250681 60.3125 18.6875 C60.34988281 17.90761719 60.38726562 17.12773437 60.42578125 16.32421875 C59.81077249 12.96706086 58.80468468 11.94103372 56 10 C53.15141289 9.42324626 50.39754905 9.44096674 47.5 9.5 C46.74074219 9.48453125 45.98148438 9.4690625 45.19921875 9.453125 C41.6495373 9.47799142 39.55274264 9.65453585 36.5 11.5625 Z M64 10 C64 19.57 64 29.14 64 39 C67.96 39 71.92 39 76 39 C76 37.02 76 35.04 76 33 C77.22976562 33.06960937 77.22976562 33.06960937 78.484375 33.140625 C79.56203125 33.17671875 80.6396875 33.2128125 81.75 33.25 C82.81734375 33.29640625 83.8846875 33.3428125 84.984375 33.390625 C88.04248067 33.21747364 88.04248067 33.21747364 90.359375 31.453125 C92.63409867 28.05187152 92.53198903 25.56260638 92.5 21.5 C92.5103125 20.1903125 92.520625 18.880625 92.53125 17.53125 C91.91318457 13.42293272 91.21917944 12.50350502 88 10 C85.30172468 9.45256284 85.30172468 9.45256284 82.359375 9.609375 C81.39483398 9.61936523 80.43029297 9.62935547 79.43652344 9.63964844 C78.2199707 9.67606445 77.00341797 9.71248047 75.75 9.75 C71.8725 9.8325 67.995 9.915 64 10 Z M96 10 C95.89199053 13.08427046 95.81268998 16.16475747 95.75 19.25 C95.71648437 20.12269531 95.68296875 20.99539062 95.6484375 21.89453125 C95.63554687 22.73886719 95.62265625 23.58320313 95.609375 24.453125 C95.58842773 25.22817383 95.56748047 26.00322266 95.54589844 26.80175781 C96.19463826 29.94221663 97.4621424 31.09178808 100 33 C102.60022123 33.54674799 102.60022123 33.54674799 105.421875 33.390625 C106.34581055 33.38063477 107.26974609 33.37064453 108.22167969 33.36035156 C109.38602539 33.32393555 110.55037109 33.28751953 111.75 33.25 C117.31875 33.12625 117.31875 33.12625 123 33 C123 25.41 123 17.82 123 10 C118.71 10 114.42 10 110 10 C110.33 14.62 110.66 19.24 111 24 C110.01 23.67 109.02 23.34 108 23 C108 18.71 108 14.42 108 10 C104.04 10 100.08 10 96 10 Z M174 10 C174 17.59 174 25.18 174 33 C177.63 33 181.26 33 185 33 C185 25.41 185 17.82 185 10 C181.37 10 177.74 10 174 10 Z M190.328125 11.546875 C188.47619791 14.96749327 188.46948906 17.6251105 188.5 21.5 C188.4896875 22.8096875 188.479375 24.119375 188.46875 25.46875 C188.78580732 28.93637413 188.78580732 28.93637413 190.328125 31.453125 C194.72964328 34.00137243 199.27249106 33.41423253 204.25 33.25 C205.796875 33.22292969 205.796875 33.22292969 207.375 33.1953125 C209.9170645 33.14823723 212.45865067 33.07649546 215 33 C215 29.7 215 26.4 215 23 C210.38 23 205.76 23 201 23 C201.33 21.68 201.66 20.36 202 19 C202.66 19.33 203.32 19.66 204 20 C205.87379605 20.07033769 207.75001102 20.0843022 209.625 20.0625 C210.62789062 20.05347656 211.63078125 20.04445313 212.6640625 20.03515625 C213.82035156 20.01775391 213.82035156 20.01775391 215 20 C215 16.7 215 13.4 215 10 C211.41586348 9.89211629 207.83496852 9.81273695 204.25 9.75 C203.23421875 9.71648438 202.2184375 9.68296875 201.171875 9.6484375 C195.49287577 9.51173514 195.49287577 9.51173514 190.328125 11.546875 Z " fill="#000000" transform="translate(101,5)"/>
<path d="M0 0 C1.31495542 2.60295276 2.62704986 5.20728033 3.9375 7.8125 C4.31068359 8.55048828 4.68386719 9.28847656 5.06835938 10.04882812 C5.60493164 11.11713867 5.60493164 11.11713867 6.15234375 12.20703125 C6.48226318 12.8616333 6.81218262 13.51623535 7.15209961 14.19067383 C8 16 8 16 9 19 C10.82177738 15.24928186 11.36624071 12.99362668 10 9 C8.50014391 7.33289654 8.50014391 7.33289654 7 6 C7 5.34 7 4.68 7 4 C12.06422018 -0.02835696 12.06422018 -0.02835696 15.0625 0.0625 C17.47654948 1.23058846 19.74070614 2.55656226 22 4 C20.84826645 6.46800047 19.95216435 8.04783565 18 10 C17.98308463 12.75720558 18.52283819 15.26716418 19 18 C19.33 18.33 19.66 18.66 20 19 C20.23710693 18.45996338 20.47421387 17.91992676 20.71850586 17.36352539 C21.78909926 14.92878456 22.86325029 12.49562968 23.9375 10.0625 C24.31068359 9.21236328 24.68386719 8.36222656 25.06835938 7.48632812 C25.42607422 6.67744141 25.78378906 5.86855469 26.15234375 5.03515625 C26.48226318 4.2862915 26.81218262 3.53742676 27.15209961 2.76586914 C28 1 28 1 29 0 C35.09681864 -0.60968186 38.14727334 0.54709834 43 4 C47.08499757 8.74049718 46.44412865 14.20297938 46.375 20.125 C46.38660156 21.12660156 46.39820313 22.12820312 46.41015625 23.16015625 C46.40628906 24.12050781 46.40242188 25.08085938 46.3984375 26.0703125 C46.39505371 26.94445801 46.39166992 27.81860352 46.38818359 28.71923828 C45.90485991 31.55899292 45.27970072 32.27031103 43 34 C40.4954834 34.38095093 40.4954834 34.38095093 37.47460938 34.38818359 C35.77769958 34.40236832 35.77769958 34.40236832 34.04650879 34.4168396 C32.82459839 34.41076691 31.60268799 34.40469421 30.34375 34.3984375 C29.0899353 34.40130768 27.83612061 34.40417786 26.54431152 34.40713501 C23.8910425 34.40917827 21.23860029 34.40513468 18.58544922 34.39111328 C15.18558366 34.37402086 11.78642854 34.38386317 8.38658905 34.40183067 C5.14311722 34.41528089 1.8997311 34.40586234 -1.34375 34.3984375 C-3.1766156 34.40754654 -3.1766156 34.40754654 -5.04650879 34.4168396 C-6.17778198 34.40738312 -7.30905518 34.39792664 -8.47460938 34.38818359 C-9.4714978 34.38579681 -10.46838623 34.38341003 -11.4954834 34.38095093 C-14 34 -14 34 -15.82107544 32.61828613 C-17.44876568 30.38398834 -17.38780388 28.8173319 -17.3984375 26.0703125 C-17.40230469 25.10996094 -17.40617187 24.14960937 -17.41015625 23.16015625 C-17.39855469 22.15855469 -17.38695313 21.15695313 -17.375 20.125 C-17.38660156 19.13113281 -17.39820312 18.13726562 -17.41015625 17.11328125 C-17.37321334 7.91449641 -17.37321334 7.91449641 -14 4 C-8.94772468 0.40511179 -6.29580515 -0.20333342 0 0 Z " fill="#050505" transform="translate(44,44)"/>
<path d="M0 0 C11.55 0 23.1 0 35 0 C35 2.31 35 4.62 35 7 C53.81 7 72.62 7 92 7 C92 4.69 92 2.38 92 0 C95.14581423 -0.02888514 98.29159469 -0.04675923 101.4375 -0.0625 C102.78424805 -0.07506836 102.78424805 -0.07506836 104.15820312 -0.08789062 C105.01220703 -0.09111328 105.86621094 -0.09433594 106.74609375 -0.09765625 C107.53685303 -0.10289307 108.3276123 -0.10812988 109.14233398 -0.11352539 C111 0 111 0 112 1 C112.04063832 2.66617115 112.042721 4.33388095 112 6 C112.99902344 5.98839844 113.99804688 5.97679687 115.02734375 5.96484375 C116.31769531 5.95582031 117.60804688 5.94679688 118.9375 5.9375 C120.22527344 5.92589844 121.51304687 5.91429687 122.83984375 5.90234375 C126 6 126 6 127 7 C127.10003289 9.13353174 127.13081048 11.27037542 127.1328125 13.40625 C127.13410156 14.70691406 127.13539063 16.00757813 127.13671875 17.34765625 C127.13462402 18.02844238 127.1325293 18.70922852 127.13037109 19.41064453 C127.1250224 21.49128515 127.1303168 23.57170989 127.13671875 25.65234375 C127.13542969 26.95300781 127.13414062 28.25367188 127.1328125 29.59375 C127.13168457 30.79708984 127.13055664 32.00042969 127.12939453 33.24023438 C127 36 127 36 126 37 C124.36735632 37.08388779 122.73103033 37.09690097 121.09629822 37.08229065 C119.50396111 37.07173141 119.50396111 37.07173141 117.87945557 37.06095886 C116.70485779 37.04801285 115.53026001 37.03506683 114.32006836 37.02172852 C112.47642448 37.0073172 112.47642448 37.0073172 110.59553528 36.99261475 C107.21548401 36.96520537 103.83552972 36.93331109 100.45554042 36.89946485 C96.92681655 36.86517562 93.39804691 36.83656135 89.86927795 36.80735779 C83.18273667 36.75115211 76.4962527 36.68980639 69.80977398 36.62663645 C62.19928844 36.55498562 54.58875693 36.48903071 46.97821605 36.42356598 C31.31874901 36.28873737 15.65936779 36.14596566 0 36 C0 24.12 0 12.24 0 0 Z M4 3 C4 12.9 4 22.8 4 33 C7.96 33 11.92 33 16 33 C16.66 30.03 17.32 27.06 18 24 C18.22786458 26.05078125 18.45572917 28.1015625 18.68359375 30.15234375 C18.81886614 32.01140229 18.81886614 32.01140229 20 33 C22.01964199 33.07244053 24.04167124 33.08377188 26.0625 33.0625 C27.16722656 33.05347656 28.27195312 33.04445313 29.41015625 33.03515625 C30.26480469 33.02355469 31.11945313 33.01195313 32 33 C32 29.37 32 25.74 32 22 C30.02 21.67 28.04 21.34 26 21 C26 20.34 26 19.68 26 19 C27.98 18.67 29.96 18.34 32 18 C32.10867302 16.41820385 32.18589827 14.83422847 32.25 13.25 C32.31960938 11.92742188 32.31960938 11.92742188 32.390625 10.578125 C31.86865669 7.13313415 30.68728813 6.16651333 28 4 C25.30762013 3.3636349 25.30762013 3.3636349 22.359375 3.390625 C21.39483398 3.36000977 20.43029297 3.32939453 19.43652344 3.29785156 C17.61169434 3.27416504 17.61169434 3.27416504 15.75 3.25 C9.93375 3.12625 9.93375 3.12625 4 3 Z M96 4 C96 13.57 96 23.14 96 33 C99.63 33 103.26 33 107 33 C107.28875 31.535625 107.5775 30.07125 107.875 28.5625 C108.3671875 26.06640625 108.3671875 26.06640625 109 24 C109.66 23.67 110.32 23.34 111 23 C110.79375 23.721875 110.5875 24.44375 110.375 25.1875 C109.70574941 28.45057921 109.70574941 28.45057921 112 33 C115.63 33 119.26 33 123 33 C123 30.03 123 27.06 123 24 C121.02 23.34 119.04 22.68 117 22 C117 21.34 117 20.68 117 20 C118.98 19.67 120.96 19.34 123 19 C123 16.03 123 13.06 123 10 C121.18757948 9.97312721 119.37504767 9.95366285 117.5625 9.9375 C116.04849609 9.92009766 116.04849609 9.92009766 114.50390625 9.90234375 C112.05978933 9.71387324 112.05978933 9.71387324 111 11 C110.92851801 12.35243917 110.91600546 13.70834367 110.9375 15.0625 C110.958125 16.361875 110.97875 17.66125 111 19 C110.34 19 109.68 19 109 19 C108.67 14.05 108.34 9.1 108 4 C104.04 4 100.08 4 96 4 Z M36.40625 11.56640625 C34.43905973 14.9707383 34.46919359 17.58758598 34.5 21.5 C34.4896875 22.8096875 34.479375 24.119375 34.46875 25.46875 C34.77191494 28.94791737 34.77191494 28.94791737 36.40625 31.43359375 C40.46282525 33.88342308 44.35095075 33.61895274 49 33.5625 C49.90234375 33.58634766 50.8046875 33.61019531 51.734375 33.63476562 C57.11231275 33.62873263 57.11231275 33.62873263 61.59375 30.87109375 C63.23917173 27.51169106 63.53488442 25.23263337 63.5 21.5 C63.5103125 20.3965625 63.520625 19.293125 63.53125 18.15625 C62.85582313 14.14341979 62.16518784 12.59793279 59 10 C55.64922879 9.29235996 52.41204559 9.34732451 49 9.4375 C48.09765625 9.42654297 47.1953125 9.41558594 46.265625 9.40429688 C42.38067237 9.44739916 39.76991331 9.53503729 36.40625 11.56640625 Z M67.86328125 12.11328125 C65.66222065 15.52331015 65.32784192 17.46326848 65.375 21.5 C65.36210937 22.6034375 65.34921875 23.706875 65.3359375 24.84375 C66.24365269 29.1580669 67.33300244 30.52945743 71 33 C74.62850533 33.59060031 78.14889057 33.47242922 81.8125 33.3125 C82.79154297 33.28994141 83.77058594 33.26738281 84.77929688 33.24414062 C87.1868573 33.18541964 89.59362754 33.09574426 92 33 C92 29.7 92 26.4 92 23 C90.84371094 23.01740234 90.84371094 23.01740234 89.6640625 23.03515625 C88.15972656 23.04869141 88.15972656 23.04869141 86.625 23.0625 C85.62726563 23.07410156 84.62953125 23.08570313 83.6015625 23.09765625 C81 23 81 23 79 22 C79 21.01 79 20.02 79 19 C79.66 19.33 80.32 19.66 81 20 C82.87379605 20.07033769 84.75001102 20.0843022 86.625 20.0625 C87.62789062 20.05347656 88.63078125 20.04445313 89.6640625 20.03515625 C90.82035156 20.01775391 90.82035156 20.01775391 92 20 C92 16.7 92 13.4 92 10 C88.60283223 9.86483417 85.21105392 9.76580769 81.8125 9.6875 C80.85279297 9.64560547 79.89308594 9.60371094 78.90429688 9.56054688 C74.27944955 9.48053222 71.77691283 9.47657554 67.86328125 12.11328125 Z " fill="#000000" transform="translate(404,5)"/>
<path d="M0 0 C4.29 0 8.58 0 13 0 C13 1.32 13 2.64 13 4 C19.93 4 26.86 4 34 4 C34 5.32 34 6.64 34 8 C36.64 8 39.28 8 42 8 C42 6.68 42 5.36 42 4 C46.29 4 50.58 4 55 4 C55 5.32 55 6.64 55 8 C62.59 8 70.18 8 78 8 C78 6.68 78 5.36 78 4 C82.62 4 87.24 4 92 4 C92 5.32 92 6.64 92 8 C97.94 8 103.88 8 110 8 C110 5.36 110 2.72 110 0 C114.62 0 119.24 0 124 0 C124.02291161 4.53904366 124.04283781 9.07788802 124.05493164 13.61694336 C124.0599714 15.16219766 124.0668032 16.70744716 124.07543945 18.25268555 C124.08752076 20.46925029 124.09323173 22.68575218 124.09765625 24.90234375 C124.10281754 25.5971434 124.10797882 26.29194305 124.11329651 27.00779724 C124.11349277 28.6722933 124.06189129 30.33665499 124 32 C123 33 123 33 120.27734375 33.09765625 C118.62412109 33.08025391 118.62412109 33.08025391 116.9375 33.0625 C115.83277344 33.05347656 114.72804688 33.04445312 113.58984375 33.03515625 C112.73519531 33.02355469 111.88054687 33.01195312 111 33 C110.67 31.35 110.34 29.7 110 28 C77.99 28 45.98 28 13 28 C13 29.32 13 30.64 13 32 C8.71 32 4.42 32 0 32 C0 21.44 0 10.88 0 0 Z M2 5 C1.54704667 8.62644504 1.67595198 12.28601738 1.6875 15.9375 C1.67138672 16.95263672 1.65527344 17.96777344 1.63867188 19.01367188 C1.63802734 19.98755859 1.63738281 20.96144531 1.63671875 21.96484375 C1.63373779 22.8580835 1.63075684 23.75132324 1.62768555 24.67163086 C1.82630919 27.05128822 1.82630919 27.05128822 3.32348633 28.80297852 C5.82567717 30.58952893 8.01698259 30.19886783 11 30 C11 28.68 11 27.36 11 26 C10.01 26 9.02 26 8 26 C8 19.73 8 13.46 8 7 C8.99 7 9.98 7 11 7 C11 5.68 11 4.36 11 3 C5.9794171 2.49708619 5.9794171 2.49708619 2 5 Z M113 3 C113 4.32 113 5.64 113 7 C113.66 7 114.32 7 115 7 C115 13.27 115 19.54 115 26 C114.34 26 113.68 26 113 26 C113 27.32 113 28.64 113 30 C115.91652174 30.16681109 115.91652174 30.16681109 119 30 C121.56988681 27.43011319 121.25706775 26.41089947 121.265625 22.84375 C121.26820313 21.82152344 121.27078125 20.79929687 121.2734375 19.74609375 C121.26570313 18.67488281 121.25796875 17.60367188 121.25 16.5 C121.26160156 14.89318359 121.26160156 14.89318359 121.2734375 13.25390625 C121.27085937 12.23167969 121.26828125 11.20945312 121.265625 10.15625 C121.26336914 9.21587891 121.26111328 8.27550781 121.25878906 7.30664062 C121.22098716 4.80508033 121.22098716 4.80508033 119 3 C115.91652174 2.83318891 115.91652174 2.83318891 113 3 Z M13 9 C12.85482256 11.9093558 12.81369204 14.719946 12.875 17.625 C12.88402344 18.42679688 12.89304687 19.22859375 12.90234375 20.0546875 C12.92593777 22.03658523 12.96180935 24.01832981 13 26 C15.64 26 18.28 26 21 26 C21 24.02 21 22.04 21 20 C21.99 20 22.98 20 24 20 C24 21.98 24 23.96 24 26 C26.64 26 29.28 26 32 26 C32.05380578 23.20807795 32.09357669 20.4171859 32.125 17.625 C32.14175781 16.8309375 32.15851563 16.036875 32.17578125 15.21875 C32.19335473 13.14507985 32.10335168 11.07116759 32 9 C29.50789561 6.50789561 27.99639212 6.73984339 24.58984375 6.7265625 C23.90019531 6.73429687 23.21054687 6.74203125 22.5 6.75 C21.46552734 6.73839844 21.46552734 6.73839844 20.41015625 6.7265625 C16.24785614 6.6238695 16.24785614 6.6238695 13 9 Z M45 7 C45 8.32 45 9.64 45 11 C43.01432292 10.90234375 41.02864583 10.8046875 39.04296875 10.70703125 C36.92939878 10.85164817 36.92939878 10.85164817 35.26171875 12.23046875 C33.67244972 14.45938166 33.59781072 15.78107208 33.625 18.5 C33.61726563 19.2734375 33.60953125 20.046875 33.6015625 20.84375 C33.88033604 23.01680328 33.88033604 23.01680328 35.01171875 24.76953125 C38.19683802 26.74067579 41.56858259 26.30982655 45.1875 26.1875 C47.765625 26.125625 50.34375 26.06375 53 26 C53 19.73 53 13.46 53 7 C50.36 7 47.72 7 45 7 Z M81 7 C81 7.33 81 7.66 81 8 C83.64 8 86.28 8 89 8 C89 7.67 89 7.34 89 7 C86.36 7 83.72 7 81 7 Z M55 11 C55 15.95 55 20.9 55 26 C57.31 26 59.62 26 62 26 C62 23.03 62 20.06 62 17 C62.66 17 63.32 17 64 17 C64 19.97 64 22.94 64 26 C65.65 26 67.3 26 69 26 C69 23.03 69 20.06 69 17 C69.99 17 70.98 17 72 17 C72 19.97 72 22.94 72 26 C73.98 26 75.96 26 78 26 C78.05386629 23.87527424 78.09273071 21.75016348 78.125 19.625 C78.14820313 18.44164062 78.17140625 17.25828125 78.1953125 16.0390625 C78.32866229 12.88846183 78.32866229 12.88846183 76 11 C72.41656024 10.83322718 72.41656024 10.83322718 69 11 C68.67 11.66 68.34 12.32 68 13 C67.43796875 12.67257813 66.8759375 12.34515625 66.296875 12.0078125 C62.54475882 10.36147581 59.06077387 10.88056547 55 11 Z M81 11 C81 15.95 81 20.9 81 26 C83.64 26 86.28 26 89 26 C89 21.05 89 16.1 89 11 C86.36 11 83.72 11 81 11 Z M92 11 C92 15.95 92 20.9 92 26 C94.64 26 97.28 26 100 26 C100 23.03 100 20.06 100 17 C100.66 17 101.32 17 102 17 C102 19.97 102 22.94 102 26 C104.64 26 107.28 26 110 26 C110.05386629 23.87527424 110.09273071 21.75016348 110.125 19.625 C110.14820313 18.44164062 110.17140625 17.25828125 110.1953125 16.0390625 C110.32866229 12.88846183 110.32866229 12.88846183 108 11 C105.25514407 10.85492305 102.61519457 10.81347577 99.875 10.875 C98.74384766 10.88853516 98.74384766 10.88853516 97.58984375 10.90234375 C95.72642746 10.9259313 93.86317407 10.96180281 92 11 Z " fill="#000000" transform="translate(279,44)"/>
<path d="M0 0 C4.50665768 2.13473258 7.1741532 4.91822129 10 9 C11.6728747 14.01862411 12.03347349 19.27960118 10.12890625 24.29296875 C7.43279791 29.00452857 4.27467092 32.40671291 -1 34 C-6.58667535 34.87683245 -11.44054014 34.75295126 -16.4375 31.9375 C-20.96013912 28.61284947 -23.50992796 25.17015352 -24.375 19.57421875 C-24.66905876 13.51844616 -23.59733001 9.86125677 -20 5 C-13.68633418 -0.71236431 -8.33439661 -0.73090932 0 0 Z " fill="#0A0A0A" transform="translate(65,6)"/>
<path d="M0 0 C8.91 0 17.82 0 27 0 C27 12.21 27 24.42 27 37 C-2.205 36.505 -2.205 36.505 -32 36 C-32 26.43 -32 16.86 -32 7 C-21.44 7 -10.88 7 0 7 C0 4.69 0 2.38 0 0 Z M4.78125 5.65820312 C2.5337896 8.61292355 2.53426943 10.1792023 2.609375 13.859375 C2.62226563 14.97441406 2.63515625 16.08945312 2.6484375 17.23828125 C2.68195313 18.39714844 2.71546875 19.55601563 2.75 20.75 C2.76804687 21.92433594 2.78609375 23.09867188 2.8046875 24.30859375 C2.85180106 27.20607757 2.92354334 30.10314195 3 33 C6.96 33 10.92 33 15 33 C15.33 30.36 15.66 27.72 16 25 C19.465 24.505 19.465 24.505 23 24 C23 21.36 23 18.72 23 16 C20.03 15.67 17.06 15.34 14 15 C14 14.01 14 13.02 14 12 C16.97 12.33 19.94 12.66 23 13 C23 10.03 23 7.06 23 4 C20.41554227 3.8918134 17.83562648 3.81262763 15.25 3.75 C14.15558594 3.69972656 14.15558594 3.69972656 13.0390625 3.6484375 C9.66612634 3.58711139 7.52879737 3.60479844 4.78125 5.65820312 Z M-26.59375 11.56640625 C-28.56094027 14.9707383 -28.53080641 17.58758598 -28.5 21.5 C-28.5103125 22.8096875 -28.520625 24.119375 -28.53125 25.46875 C-28.22808506 28.94791737 -28.22808506 28.94791737 -26.59375 31.43359375 C-22.53717475 33.88342308 -18.64904925 33.61895274 -14 33.5625 C-13.09765625 33.58634766 -12.1953125 33.61019531 -11.265625 33.63476562 C-5.88768725 33.62873263 -5.88768725 33.62873263 -1.40625 30.87109375 C0.23917173 27.51169106 0.53488442 25.23263337 0.5 21.5 C0.5103125 20.3965625 0.520625 19.293125 0.53125 18.15625 C-0.14417687 14.14341979 -0.83481216 12.59793279 -4 10 C-7.35077121 9.29235996 -10.58795441 9.34732451 -14 9.4375 C-14.90234375 9.42654297 -15.8046875 9.41558594 -16.734375 9.40429688 C-20.61932763 9.44739916 -23.23008669 9.53503729 -26.59375 11.56640625 Z " fill="#000000" transform="translate(364,5)"/>
<path d="M0 0 C1.32 0.99 2.64 1.98 4 3 C4 2.01 4 1.02 4 0 C4.99 0.33 5.98 0.66 7 1 C8.57988425 5.73965275 7.60435712 9.47575621 6.47094727 14.2097168 C5.89823062 17.60296643 5.88818092 20.82796393 5.90234375 24.26953125 C5.90446617 25.29103523 5.90446617 25.29103523 5.90663147 26.33317566 C5.91219702 28.49299647 5.92474297 30.65271089 5.9375 32.8125 C5.94251946 34.28320162 5.94708159 35.75390488 5.95117188 37.22460938 C5.96215512 40.8164404 5.97939578 44.4082098 6 48 C7.485 47.505 7.485 47.505 9 47 C9.33 46.01 9.66 45.02 10 44 C10.66 44 11.32 44 12 44 C12.625 46.8125 12.625 46.8125 13 50 C12.34 50.99 11.68 51.98 11 53 C10.58733136 56.71401778 10.79251412 58.60992655 12.5625 61.9375 C14.38631934 65.82302816 13.97582745 67.87149924 13 72 C11.9375 74.9375 11.9375 74.9375 11 77 C10.01 77 9.02 77 8 77 C6.68 74.03 5.36 71.06 4 68 C-0.51135667 70.19471406 -2.06273348 72.41173718 -4 77 C-4.66 77 -5.32 77 -6 77 C-12.31245896 65.71563116 -12.31245896 65.71563116 -11.578125 61.68359375 C-10.5 59.875 -10.5 59.875 -8 57 C-5.19561871 52.79342807 -6.2728592 49.86786884 -6.90625 45.0078125 C-7.00690267 41.77853942 -6.40182485 39.8779889 -5 37 C-3 39 -3 39 -2.5 41.0625 C-2.335 41.701875 -2.17 42.34125 -2 43 C-1.34 43.33 -0.68 43.66 0 44 C0.04944705 39.49765627 0.08574161 34.9954707 0.10986328 30.49291992 C0.11991935 28.96131639 0.133566 27.42973205 0.15087891 25.89819336 C0.17514498 23.69640364 0.18648688 21.49486781 0.1953125 19.29296875 C0.20563507 18.60849167 0.21595764 17.92401459 0.22659302 17.21879578 C0.22745382 13.56938339 0.08567666 12.12851498 -2 9 C-2 2 -2 2 0 0 Z " fill="#070707" transform="translate(565,1)"/>
<path d="M0 0 C1.32 0.99 2.64 1.98 4 3 C4 2.01 4 1.02 4 0 C4.99 0.33 5.98 0.66 7 1 C8.57988425 5.73965275 7.60435712 9.47575621 6.47094727 14.2097168 C5.89823062 17.60296643 5.88818092 20.82796393 5.90234375 24.26953125 C5.9037587 24.95053391 5.90517365 25.63153656 5.90663147 26.33317566 C5.91219702 28.49299647 5.92474297 30.65271089 5.9375 32.8125 C5.94251946 34.28320162 5.94708159 35.75390488 5.95117188 37.22460938 C5.96215512 40.8164404 5.97939578 44.4082098 6 48 C7.485 47.505 7.485 47.505 9 47 C9.33 46.01 9.66 45.02 10 44 C10.66 44 11.32 44 12 44 C12.625 46.8125 12.625 46.8125 13 50 C12.34 50.99 11.68 51.98 11 53 C10.61500109 54.65549531 10.27206865 56.3222433 10 58 C9.67 58 9.34 58 9 58 C9 55.69 9 53.38 9 51 C8.195625 50.855625 7.39125 50.71125 6.5625 50.5625 C4 50 4 50 3 49 C2.92680379 46.30345146 2.90757463 43.63308542 2.9375 40.9375 C2.94201172 40.17888672 2.94652344 39.42027344 2.95117188 38.63867188 C2.9629932 36.75908129 2.98092922 34.87953101 3 33 C2.34 36.63 1.68 40.26 1 44 C0.67 44 0.34 44 0 44 C0.01047363 43.04633545 0.02094727 42.0926709 0.03173828 41.11010742 C0.06794501 37.57108312 0.09090284 34.0320752 0.10986328 30.49291992 C0.11991935 28.96131639 0.133566 27.42973205 0.15087891 25.89819336 C0.17514498 23.69640364 0.18648688 21.49486781 0.1953125 19.29296875 C0.20563507 18.60849167 0.21595764 17.92401459 0.22659302 17.21879578 C0.22745382 13.56938339 0.08567666 12.12851498 -2 9 C-2 2 -2 2 0 0 Z " fill="#575757" transform="translate(565,1)"/>
<path d="M0 0 C2.41404948 1.16808846 4.67820614 2.49406226 6.9375 3.9375 C5.78576645 6.40550047 4.88966435 7.98533565 2.9375 9.9375 C2.69537127 11.91878508 2.69537127 11.91878508 2.8125 14.0625 C2.85375 15.34125 2.895 16.62 2.9375 17.9375 C2.2775 17.2775 1.6175 16.6175 0.9375 15.9375 C0.9375 14.9475 0.9375 13.9575 0.9375 12.9375 C-0.0525 12.9375 -1.0425 12.9375 -2.0625 12.9375 C-2.2790625 14.2678125 -2.2790625 14.2678125 -2.5 15.625 C-2.97269978 18.40867646 -3.49320185 21.17233757 -4.0625 23.9375 C-4.7225 23.9375 -5.3825 23.9375 -6.0625 23.9375 C-5.90652344 23.27363281 -5.75054687 22.60976562 -5.58984375 21.92578125 C-5.29787109 20.60126953 -5.29787109 20.60126953 -5 19.25 C-4.70416016 17.94482422 -4.70416016 17.94482422 -4.40234375 16.61328125 C-4.03764126 13.74177313 -4.26252591 11.7088388 -5.0625 8.9375 C-6.56235609 7.27039654 -6.56235609 7.27039654 -8.0625 5.9375 C-8.0625 5.2775 -8.0625 4.6175 -8.0625 3.9375 C-2.99827982 -0.09085696 -2.99827982 -0.09085696 0 0 Z " fill="#212121" transform="translate(59.0625,44.0625)"/>
<path d="M0 0 C0.33 0 0.66 0 1 0 C1.33 9.9 1.66 19.8 2 30 C2.99 29.67 3.98 29.34 5 29 C5.33 28.01 5.66 27.02 6 26 C6.66 26 7.32 26 8 26 C8.625 28.8125 8.625 28.8125 9 32 C8.34 32.99 7.68 33.98 7 35 C6.61500109 36.65549531 6.27206865 38.3222433 6 40 C5.67 40 5.34 40 5 40 C5 37.69 5 35.38 5 33 C4.195625 32.855625 3.39125 32.71125 2.5625 32.5625 C0 32 0 32 -1 31 C-1.53501172 20.67742101 -0.69809178 10.29685371 0 0 Z " fill="#3B3B3B" transform="translate(569,19)"/>
<path d="M0 0 C2.51005664 3.76508495 2.0258295 6.39461609 1.625 10.6875 C1.56828125 11.38939453 1.5115625 12.09128906 1.453125 12.81445312 C1.31195359 14.54380285 1.15728041 16.27204088 1 18 C0.67 18 0.34 18 0 18 C-0.99 23.445 -0.99 23.445 -2 29 C-2.33 29 -2.66 29 -3 29 C-3 23.06 -3 17.12 -3 11 C-2.34 11 -1.68 11 -1 11 C-1.01160156 10.28972656 -1.02320313 9.57945313 -1.03515625 8.84765625 C-1.04417969 7.92855469 -1.05320312 7.00945313 -1.0625 6.0625 C-1.07410156 5.14597656 -1.08570313 4.22945312 -1.09765625 3.28515625 C-1 1 -1 1 0 0 Z " fill="#373737" transform="translate(568,16)"/>
<path d="M0 0 C2.82304338 1.96385626 3.07448 3.31919999 3.875 6.75 C4.31480514 11.23103351 3.05397412 14.0563697 1 18 C0.01 18 -0.98 18 -2 18 C-3.32 15.03 -4.64 12.06 -6 9 C-6.99 9 -7.98 9 -9 9 C-9 8.34 -9 7.68 -9 7 C-6.6875 7.125 -6.6875 7.125 -4 8 C-2.1875 11.0625 -2.1875 11.0625 -1 14 C1.46270288 10.30594568 1.22985417 8.36722928 1 4 C0.57145005 1.68963085 0.57145005 1.68963085 0 0 Z " fill="#414141" transform="translate(575,60)"/>
<path d="M0 0 C2.19191368 2.19191368 2.27869352 3.11477408 3 6 C3.66 6.66 4.32 7.32 5 8 C3.68 8.33 2.36 8.66 1 9 C1 11.97 1 14.94 1 18 C0.34 17.67 -0.32 17.34 -1 17 C-1.484375 14.453125 -1.484375 14.453125 -1.75 11.25 C-1.84796875 10.20328125 -1.9459375 9.1565625 -2.046875 8.078125 C-1.99820731 4.88228024 -1.37576529 2.85735868 0 0 Z " fill="#4F4F4F" transform="translate(560,38)"/>
<path d="M0 0 C1.98 0.99 1.98 0.99 4 2 C3.67 2.66 3.34 3.32 3 4 C3.99 4.33 4.98 4.66 6 5 C6.99 6.485 6.99 6.485 8 8 C8.99 6.68 9.98 5.36 11 4 C11.66 4.33 12.32 4.66 13 5 C12.360625 5.94875 11.72125 6.8975 11.0625 7.875 C9.07379437 10.75287827 9.07379437 10.75287827 8 13 C7.34 13 6.68 13 6 13 C4.02 8.71 2.04 4.42 0 0 Z " fill="#474747" transform="translate(553,65)"/>
<path d="M0 0 C0 0.33 0 0.66 0 1 C-0.62648438 1.02578125 -1.25296875 1.0515625 -1.8984375 1.078125 C-2.71570312 1.13484375 -3.53296875 1.1915625 -4.375 1.25 C-5.18710937 1.29640625 -5.99921875 1.3428125 -6.8359375 1.390625 C-9.166345 1.78100529 -9.166345 1.78100529 -10.1640625 3.921875 C-10.43992187 4.60765625 -10.71578125 5.2934375 -11 6 C-12.33333333 7.33333333 -13.66666667 8.66666667 -15 10 C-16.23512079 12.13309192 -16.23512079 12.13309192 -17 14 C-16.74986131 9.7476422 -16.43113402 7.52435219 -13.6875 4.1875 C-8.89295592 0.28496412 -6.26579545 -0.24099213 0 0 Z " fill="#343434" transform="translate(44,44)"/>
<path d="M0 0 C1.32 0.33 2.64 0.66 4 1 C4.25 6.625 4.25 6.625 2 10 C1.34 10 0.68 10 0 10 C0 6.7 0 3.4 0 0 Z " fill="#000000" transform="translate(451,21)"/>
<path d="M0 0 C0.66 0 1.32 0 2 0 C2.625 2.8125 2.625 2.8125 3 6 C2.01 7.485 2.01 7.485 1 9 C0.61500109 10.65549531 0.27206865 12.3222433 0 14 C-0.33 14 -0.66 14 -1 14 C-1 11.69 -1 9.38 -1 7 C-2.32 6.67 -3.64 6.34 -5 6 C-4.01 5.34 -3.02 4.68 -2 4 C-0.80767387 1.94996045 -0.80767387 1.94996045 0 0 Z " fill="#474747" transform="translate(575,45)"/>
<path d="M0 0 C1.32 0.33 2.64 0.66 4 1 C4.25 6.625 4.25 6.625 2 10 C1.34 10 0.68 10 0 10 C0 6.7 0 3.4 0 0 Z " fill="#000000" transform="translate(348,21)"/>
<path d="M0 0 C1.32 0.33 2.64 0.66 4 1 C4.25 3.75 4.25 3.75 4 7 C2 9.375 2 9.375 0 11 C0 7.37 0 3.74 0 0 Z " fill="#000000" transform="translate(177,21)"/>
<path d="M0 0 C1.32 0 2.64 0 4 0 C4.1953125 6.0546875 4.1953125 6.0546875 4 8 C3.34 8.66 2.68 9.32 2 10 C-0.4294516 6.3558226 -0.16179575 4.28758728 0 0 Z " fill="#0D0D0D" transform="translate(566,5)"/>
<path d="M0 0 C2.97 0 5.94 0 9 0 C9.33 0.66 9.66 1.32 10 2 C6.91111478 4.05925681 6.29064073 4.2390374 2.8125 4.125 C0.9253125 4.063125 0.9253125 4.063125 -1 4 C-0.67 2.68 -0.34 1.36 0 0 Z " fill="#000000" transform="translate(145,21)"/>
<path d="M0 0 C0.2475 0.556875 0.495 1.11375 0.75 1.6875 C2.21606015 4.39971127 4.02989471 6.63587365 6 9 C5.01 9 4.02 9 3 9 C2.67 12.3 2.34 15.6 2 19 C1.34 18.67 0.68 18.34 0 18 C0.03480469 16.64455078 0.03480469 16.64455078 0.0703125 15.26171875 C0.09738281 13.49248047 0.09738281 13.49248047 0.125 11.6875 C0.14820313 10.51574219 0.17140625 9.34398437 0.1953125 8.13671875 C0.25320618 4.83606339 0.25320618 4.83606339 -2 2 C-1.34 2 -0.68 2 0 2 C0 1.34 0 0.68 0 0 Z " fill="#444444" transform="translate(565,8)"/>
<path d="M0 0 C1.32 0.33 2.64 0.66 4 1 C3.125 7.75 3.125 7.75 2 10 C1.34 10 0.68 10 0 10 C0 6.7 0 3.4 0 0 Z " fill="#000000" transform="translate(116,15)"/>
<path d="M0 0 C0.99 0 1.98 0 3 0 C3.125 7.75 3.125 7.75 2 10 C1.01 9.67 0.02 9.34 -1 9 C-1.09765625 2.84765625 -1.09765625 2.84765625 -1 1 C-0.67 0.67 -0.34 0.34 0 0 Z " fill="#000000" transform="translate(240,21)"/>
<path d="M0 0 C0.66 0 1.32 0 2 0 C2.6875 2.8125 2.6875 2.8125 3 6 C1.5625 7.875 1.5625 7.875 0 9 C-0.87890625 2.84765625 -0.87890625 2.84765625 -1 1 C-0.67 0.67 -0.34 0.34 0 0 Z " fill="#000000" transform="translate(420,15)"/>
<path d="M0 0 C0.99 0 1.98 0 3 0 C3 2.31 3 4.62 3 7 C2.01 7 1.02 7 0 7 C0 4.69 0 2.38 0 0 Z " fill="#000000" transform="translate(300,55)"/>
<path d="M0 0 C2 3 2 3 1.75 6.625 C1.5025 7.73875 1.255 8.8525 1 10 C0.01 10.495 0.01 10.495 -1 11 C-1.02688151 9.35425434 -1.04634123 7.70838587 -1.0625 6.0625 C-1.07410156 5.14597656 -1.08570313 4.22945312 -1.09765625 3.28515625 C-1 1 -1 1 0 0 Z " fill="#141414" transform="translate(568,16)"/>
<path d="M0 0 C1.37494222 2.26461071 2.07991957 3.45654694 1.6875 6.125 C1 8 1 8 0 10 C-0.66 10 -1.32 10 -2 10 C-1.85950482 8.52031676 -1.71245174 7.04125484 -1.5625 5.5625 C-1.48128906 4.73878906 -1.40007813 3.91507813 -1.31640625 3.06640625 C-1 1 -1 1 0 0 Z " fill="#646464" transform="translate(571,5)"/>
<path d="M0 0 C0.99 0 1.98 0 3 0 C3 1.98 3 3.96 3 6 C2.01 6 1.02 6 0 6 C0 4.02 0 2.04 0 0 Z " fill="#000000" transform="translate(321,59)"/>
</svg>
